<svg width="388" height="321" viewBox="0 0 388 321" fill="none" xmlns="http://www.w3.org/2000/svg">
<rect width="388" height="320" transform="translate(0 0.565674)" fill="#2A2A2A"/>
<g clip-path="url(#clip0_1_6768)">
<rect x="34" y="46.5657" width="60" height="60" rx="8" fill="#414141" fill-opacity="0.3"/>
<g clip-path="url(#clip1_1_6768)">
<path d="M65.1501 65.3034C66.9411 62.9417 69.431 62.9302 69.431 62.9302C69.431 62.9302 69.8014 65.1506 68.0221 67.2896C66.1223 69.5735 63.9629 69.1998 63.9629 69.1998C63.9629 69.1998 63.5574 67.4036 65.1501 65.3034ZM64.1907 70.7552C65.1121 70.7552 66.8221 69.4881 69.048 69.4881C72.8794 69.4881 74.3867 72.2157 74.3867 72.2157C74.3867 72.2157 71.4387 73.7236 71.4387 77.3826C71.4387 81.5103 75.1111 82.9328 75.1111 82.9328C75.1111 82.9328 72.544 90.1618 69.0765 90.1618C67.4839 90.1618 66.2458 89.088 64.5677 89.088C62.8577 89.088 61.1607 90.2018 60.0554 90.2018C56.8891 90.2019 52.8889 83.3445 52.8889 77.8322C52.8889 72.409 56.2748 69.564 59.4506 69.564C61.5152 69.564 63.1173 70.7552 64.1907 70.7552Z" fill="white"/>
</g>
<path d="M115.904 69.7937H111.248L110.448 72.0657H108.544L112.528 60.9297H114.64L118.624 72.0657H116.704L115.904 69.7937ZM115.392 68.3057L113.584 63.1377L111.76 68.3057H115.392ZM127.06 69.7937H122.404L121.604 72.0657H119.7L123.684 60.9297H125.796L129.78 72.0657H127.86L127.06 69.7937ZM126.548 68.3057L124.74 63.1377L122.916 68.3057H126.548ZM139.289 64.2577C139.289 64.823 139.155 65.3563 138.889 65.8577C138.622 66.359 138.195 66.7697 137.609 67.0897C137.022 67.399 136.27 67.5537 135.353 67.5537H133.337V72.0657H131.513V60.9457H135.353C136.206 60.9457 136.926 61.095 137.513 61.3937C138.11 61.6817 138.553 62.0763 138.841 62.5777C139.139 63.079 139.289 63.639 139.289 64.2577ZM135.353 66.0657C136.046 66.0657 136.563 65.911 136.905 65.6017C137.246 65.2817 137.417 64.8337 137.417 64.2577C137.417 63.0417 136.729 62.4337 135.353 62.4337H133.337V66.0657H135.353ZM142.852 70.5937H146.612V72.0657H141.028V60.9457H142.852V70.5937Z" fill="white"/>
<path d="M114.846 90.8957H110.59L109.806 93.0657H108.462L111.99 83.3637H113.46L116.974 93.0657H115.63L114.846 90.8957ZM114.482 89.8597L112.718 84.9317L110.954 89.8597H114.482ZM119.786 86.8077C120.038 86.369 120.411 86.005 120.906 85.7157C121.41 85.417 121.993 85.2677 122.656 85.2677C123.337 85.2677 123.953 85.431 124.504 85.7577C125.064 86.0843 125.502 86.5463 125.82 87.1437C126.137 87.7317 126.296 88.4177 126.296 89.2017C126.296 89.9763 126.137 90.667 125.82 91.2737C125.502 91.8803 125.064 92.3517 124.504 92.6877C123.953 93.0237 123.337 93.1917 122.656 93.1917C122.002 93.1917 121.424 93.047 120.92 92.7577C120.425 92.459 120.047 92.0903 119.786 91.6517V96.7057H118.512V85.3937H119.786V86.8077ZM124.994 89.2017C124.994 88.623 124.877 88.119 124.644 87.6897C124.41 87.2603 124.093 86.9337 123.692 86.7097C123.3 86.4857 122.866 86.3737 122.39 86.3737C121.923 86.3737 121.489 86.4903 121.088 86.7237C120.696 86.9477 120.378 87.279 120.136 87.7177C119.902 88.147 119.786 88.6463 119.786 89.2157C119.786 89.7943 119.902 90.303 120.136 90.7417C120.378 91.171 120.696 91.5023 121.088 91.7357C121.489 91.9597 121.923 92.0717 122.39 92.0717C122.866 92.0717 123.3 91.9597 123.692 91.7357C124.093 91.5023 124.41 91.171 124.644 90.7417C124.877 90.303 124.994 89.7897 124.994 89.2017ZM129.247 86.8077C129.499 86.369 129.872 86.005 130.367 85.7157C130.871 85.417 131.454 85.2677 132.117 85.2677C132.798 85.2677 133.414 85.431 133.965 85.7577C134.525 86.0843 134.963 86.5463 135.281 87.1437C135.598 87.7317 135.757 88.4177 135.757 89.2017C135.757 89.9763 135.598 90.667 135.281 91.2737C134.963 91.8803 134.525 92.3517 133.965 92.6877C133.414 93.0237 132.798 93.1917 132.117 93.1917C131.463 93.1917 130.885 93.047 130.381 92.7577C129.886 92.459 129.508 92.0903 129.247 91.6517V96.7057H127.973V85.3937H129.247V86.8077ZM134.455 89.2017C134.455 88.623 134.338 88.119 134.105 87.6897C133.871 87.2603 133.554 86.9337 133.153 86.7097C132.761 86.4857 132.327 86.3737 131.851 86.3737C131.384 86.3737 130.95 86.4903 130.549 86.7237C130.157 86.9477 129.839 87.279 129.597 87.7177C129.363 88.147 129.247 88.6463 129.247 89.2157C129.247 89.7943 129.363 90.303 129.597 90.7417C129.839 91.171 130.157 91.5023 130.549 91.7357C130.95 91.9597 131.384 92.0717 131.851 92.0717C132.327 92.0717 132.761 91.9597 133.153 91.7357C133.554 91.5023 133.871 91.171 134.105 90.7417C134.338 90.303 134.455 89.7897 134.455 89.2017ZM138.707 82.7057V93.0657H137.433V82.7057H138.707ZM147.879 88.9357C147.879 89.1783 147.865 89.435 147.837 89.7057H141.705C141.751 90.4617 142.008 91.0543 142.475 91.4837C142.951 91.9037 143.525 92.1137 144.197 92.1137C144.747 92.1137 145.205 91.9877 145.569 91.7357C145.942 91.4743 146.203 91.129 146.353 90.6997H147.725C147.519 91.437 147.109 92.039 146.493 92.5057C145.877 92.963 145.111 93.1917 144.197 93.1917C143.469 93.1917 142.815 93.0283 142.237 92.7017C141.667 92.375 141.219 91.913 140.893 91.3157C140.566 90.709 140.403 90.009 140.403 89.2157C140.403 88.4223 140.561 87.727 140.879 87.1297C141.196 86.5323 141.639 86.075 142.209 85.7577C142.787 85.431 143.45 85.2677 144.197 85.2677C144.925 85.2677 145.569 85.4263 146.129 85.7437C146.689 86.061 147.118 86.4997 147.417 87.0597C147.725 87.6103 147.879 88.2357 147.879 88.9357ZM146.563 88.6697C146.563 88.1843 146.455 87.769 146.241 87.4237C146.026 87.069 145.732 86.803 145.359 86.6257C144.995 86.439 144.589 86.3457 144.141 86.3457C143.497 86.3457 142.946 86.551 142.489 86.9617C142.041 87.3723 141.784 87.9417 141.719 88.6697H146.563ZM154.567 83.3077V93.0657H153.293V83.3077H154.567ZM160.476 85.2537C161.409 85.2537 162.165 85.5383 162.744 86.1077C163.323 86.6677 163.612 87.4797 163.612 88.5437V93.0657H162.352V88.7257C162.352 87.9603 162.161 87.377 161.778 86.9757C161.395 86.565 160.873 86.3597 160.21 86.3597C159.538 86.3597 159.001 86.5697 158.6 86.9897C158.208 87.4097 158.012 88.021 158.012 88.8237V93.0657H156.738V85.3937H158.012V86.4857C158.264 86.0937 158.605 85.7903 159.034 85.5757C159.473 85.361 159.953 85.2537 160.476 85.2537ZM165.217 89.2157C165.217 88.4223 165.376 87.7317 165.693 87.1437C166.011 86.5463 166.449 86.0843 167.009 85.7577C167.579 85.431 168.227 85.2677 168.955 85.2677C169.898 85.2677 170.673 85.4963 171.279 85.9537C171.895 86.411 172.301 87.0457 172.497 87.8577H171.125C170.995 87.391 170.738 87.0223 170.355 86.7517C169.982 86.481 169.515 86.3457 168.955 86.3457C168.227 86.3457 167.639 86.5977 167.191 87.1017C166.743 87.5963 166.519 88.301 166.519 89.2157C166.519 90.1397 166.743 90.8537 167.191 91.3577C167.639 91.8617 168.227 92.1137 168.955 92.1137C169.515 92.1137 169.982 91.983 170.355 91.7217C170.729 91.4603 170.985 91.087 171.125 90.6017H172.497C172.292 91.3857 171.881 92.0157 171.265 92.4917C170.649 92.9583 169.879 93.1917 168.955 93.1917C168.227 93.1917 167.579 93.0283 167.009 92.7017C166.449 92.375 166.011 91.913 165.693 91.3157C165.376 90.7183 165.217 90.0183 165.217 89.2157ZM174.603 93.1497C174.36 93.1497 174.155 93.0657 173.987 92.8977C173.819 92.7297 173.735 92.5243 173.735 92.2817C173.735 92.039 173.819 91.8337 173.987 91.6657C174.155 91.4977 174.36 91.4137 174.603 91.4137C174.836 91.4137 175.032 91.4977 175.191 91.6657C175.359 91.8337 175.443 92.039 175.443 92.2817C175.443 92.5243 175.359 92.7297 175.191 92.8977C175.032 93.0657 174.836 93.1497 174.603 93.1497Z" fill="#B6B6B6"/>
<path d="M193.22 62.0657V60.4017H196.548V72.0657H194.708V62.0657H193.22ZM206.446 61.8097L201.998 72.0657H200.158L204.654 62.0017H198.734V60.4497H206.446V61.8097ZM215.527 61.9697H210.167V65.1537C210.391 64.855 210.722 64.6043 211.159 64.4017C211.607 64.199 212.082 64.0977 212.583 64.0977C213.479 64.0977 214.204 64.2897 214.759 64.6737C215.324 65.0577 215.724 65.543 215.959 66.1297C216.204 66.7163 216.327 67.335 216.327 67.9857C216.327 68.775 216.172 69.479 215.863 70.0977C215.564 70.7057 215.111 71.1857 214.503 71.5377C213.906 71.8897 213.17 72.0657 212.295 72.0657C211.132 72.0657 210.199 71.7777 209.495 71.2017C208.791 70.6257 208.37 69.863 208.231 68.9137H210.007C210.124 69.415 210.386 69.815 210.791 70.1137C211.196 70.4017 211.703 70.5457 212.311 70.5457C213.068 70.5457 213.634 70.3163 214.007 69.8577C214.391 69.399 214.583 68.791 214.583 68.0337C214.583 67.2657 214.391 66.679 214.007 66.2737C213.623 65.8577 213.058 65.6497 212.311 65.6497C211.788 65.6497 211.346 65.783 210.983 66.0497C210.631 66.3057 210.375 66.6577 210.215 67.1057H208.487V60.3697H215.527V61.9697ZM219.202 72.1777C218.871 72.1777 218.594 72.0657 218.37 71.8417C218.146 71.6177 218.034 71.3403 218.034 71.0097C218.034 70.679 218.146 70.4017 218.37 70.1777C218.594 69.9537 218.871 69.8417 219.202 69.8417C219.522 69.8417 219.794 69.9537 220.018 70.1777C220.242 70.4017 220.354 70.679 220.354 71.0097C220.354 71.3403 220.242 71.6177 220.018 71.8417C219.794 72.0657 219.522 72.1777 219.202 72.1777ZM222.085 66.0817C222.085 64.2363 222.394 62.7963 223.013 61.7617C223.642 60.7163 224.72 60.1937 226.245 60.1937C227.77 60.1937 228.842 60.7163 229.461 61.7617C230.09 62.7963 230.405 64.2363 230.405 66.0817C230.405 67.9483 230.09 69.4097 229.461 70.4657C228.842 71.511 227.77 72.0337 226.245 72.0337C224.72 72.0337 223.642 71.511 223.013 70.4657C222.394 69.4097 222.085 67.9483 222.085 66.0817ZM228.613 66.0817C228.613 65.2177 228.554 64.487 228.437 63.8897C228.33 63.2923 228.106 62.807 227.765 62.4337C227.424 62.0497 226.917 61.8577 226.245 61.8577C225.573 61.8577 225.066 62.0497 224.725 62.4337C224.384 62.807 224.154 63.2923 224.037 63.8897C223.93 64.487 223.877 65.2177 223.877 66.0817C223.877 66.9777 223.93 67.7297 224.037 68.3377C224.144 68.9457 224.368 69.4363 224.709 69.8097C225.061 70.183 225.573 70.3697 226.245 70.3697C226.917 70.3697 227.424 70.183 227.765 69.8097C228.117 69.4363 228.346 68.9457 228.453 68.3377C228.56 67.7297 228.613 66.9777 228.613 66.0817ZM239.855 61.9697H234.495V65.1537C234.719 64.855 235.05 64.6043 235.487 64.4017C235.935 64.199 236.41 64.0977 236.911 64.0977C237.807 64.0977 238.532 64.2897 239.087 64.6737C239.652 65.0577 240.052 65.543 240.287 66.1297C240.532 66.7163 240.655 67.335 240.655 67.9857C240.655 68.775 240.5 69.479 240.191 70.0977C239.892 70.7057 239.439 71.1857 238.831 71.5377C238.234 71.8897 237.498 72.0657 236.623 72.0657C235.46 72.0657 234.527 71.7777 233.823 71.2017C233.119 70.6257 232.698 69.863 232.559 68.9137H234.335C234.452 69.415 234.714 69.815 235.119 70.1137C235.524 70.4017 236.031 70.5457 236.639 70.5457C237.396 70.5457 237.962 70.3163 238.335 69.8577C238.719 69.399 238.911 68.791 238.911 68.0337C238.911 67.2657 238.719 66.679 238.335 66.2737C237.951 65.8577 237.386 65.6497 236.639 65.6497C236.116 65.6497 235.674 65.783 235.311 66.0497C234.959 66.3057 234.703 66.6577 234.543 67.1057H232.815V60.3697H239.855V61.9697Z" fill="white"/>
<path d="M194.824 83.3077V89.4817C194.824 90.3497 195.034 90.9937 195.454 91.4137C195.883 91.8337 196.476 92.0437 197.232 92.0437C197.979 92.0437 198.562 91.8337 198.982 91.4137C199.411 90.9937 199.626 90.3497 199.626 89.4817V83.3077H200.9V89.4677C200.9 90.2797 200.737 90.9657 200.41 91.5257C200.083 92.0763 199.64 92.487 199.08 92.7577C198.529 93.0283 197.909 93.1637 197.218 93.1637C196.527 93.1637 195.902 93.0283 195.342 92.7577C194.791 92.487 194.353 92.0763 194.026 91.5257C193.709 90.9657 193.55 90.2797 193.55 89.4677V83.3077H194.824ZM206.119 93.1637C205.475 93.1637 204.897 93.0517 204.383 92.8277C203.879 92.5943 203.483 92.277 203.193 91.8757C202.904 91.465 202.755 90.9937 202.745 90.4617H204.103C204.15 90.919 204.337 91.3063 204.663 91.6237C204.999 91.9317 205.485 92.0857 206.119 92.0857C206.726 92.0857 207.202 91.9363 207.547 91.6377C207.902 91.3297 208.079 90.9377 208.079 90.4617C208.079 90.0883 207.977 89.785 207.771 89.5517C207.566 89.3183 207.309 89.141 207.001 89.0197C206.693 88.8983 206.278 88.7677 205.755 88.6277C205.111 88.4597 204.593 88.2917 204.201 88.1237C203.819 87.9557 203.487 87.6943 203.207 87.3397C202.937 86.9757 202.801 86.4903 202.801 85.8837C202.801 85.3517 202.937 84.8803 203.207 84.4697C203.478 84.059 203.856 83.7417 204.341 83.5177C204.836 83.2937 205.401 83.1817 206.035 83.1817C206.95 83.1817 207.697 83.4103 208.275 83.8677C208.863 84.325 209.195 84.9317 209.269 85.6877H207.869C207.823 85.3143 207.627 84.9877 207.281 84.7077C206.936 84.4183 206.479 84.2737 205.909 84.2737C205.377 84.2737 204.943 84.4137 204.607 84.6937C204.271 84.9643 204.103 85.347 204.103 85.8417C204.103 86.1963 204.201 86.4857 204.397 86.7097C204.603 86.9337 204.85 87.1063 205.139 87.2277C205.438 87.3397 205.853 87.4703 206.385 87.6197C207.029 87.797 207.547 87.9743 207.939 88.1517C208.331 88.3197 208.667 88.5857 208.947 88.9497C209.227 89.3043 209.367 89.7897 209.367 90.4057C209.367 90.8817 209.241 91.3297 208.989 91.7497C208.737 92.1697 208.364 92.5103 207.869 92.7717C207.375 93.033 206.791 93.1637 206.119 93.1637ZM214.28 83.3077C215.344 83.3077 216.263 83.5083 217.038 83.9097C217.822 84.3017 218.419 84.8663 218.83 85.6037C219.25 86.341 219.46 87.209 219.46 88.2077C219.46 89.2063 219.25 90.0743 218.83 90.8117C218.419 91.5397 217.822 92.0997 217.038 92.4917C216.263 92.8743 215.344 93.0657 214.28 93.0657H211.242V83.3077H214.28ZM214.28 92.0157C215.54 92.0157 216.501 91.6843 217.164 91.0217C217.827 90.3497 218.158 89.4117 218.158 88.2077C218.158 86.9943 217.822 86.047 217.15 85.3657C216.487 84.6843 215.531 84.3437 214.28 84.3437H212.516V92.0157H214.28Z" fill="#B0B0B0"/>
<path d="M286.792 67.0577H283.56V70.3697H281.864V67.0577H278.632V65.5217H281.864V62.2097H283.56V65.5217H286.792V67.0577ZM289.382 66.0817C289.382 64.2363 289.691 62.7963 290.31 61.7617C290.939 60.7163 292.017 60.1937 293.542 60.1937C295.067 60.1937 296.139 60.7163 296.758 61.7617C297.387 62.7963 297.702 64.2363 297.702 66.0817C297.702 67.9483 297.387 69.4097 296.758 70.4657C296.139 71.511 295.067 72.0337 293.542 72.0337C292.017 72.0337 290.939 71.511 290.31 70.4657C289.691 69.4097 289.382 67.9483 289.382 66.0817ZM295.91 66.0817C295.91 65.2177 295.851 64.487 295.734 63.8897C295.627 63.2923 295.403 62.807 295.062 62.4337C294.721 62.0497 294.214 61.8577 293.542 61.8577C292.87 61.8577 292.363 62.0497 292.022 62.4337C291.681 62.807 291.451 63.2923 291.334 63.8897C291.227 64.487 291.174 65.2177 291.174 66.0817C291.174 66.9777 291.227 67.7297 291.334 68.3377C291.441 68.9457 291.665 69.4363 292.006 69.8097C292.358 70.183 292.87 70.3697 293.542 70.3697C294.214 70.3697 294.721 70.183 295.062 69.8097C295.414 69.4363 295.643 68.9457 295.75 68.3377C295.857 67.7297 295.91 66.9777 295.91 66.0817ZM300.608 72.1777C300.277 72.1777 300 72.0657 299.776 71.8417C299.552 71.6177 299.44 71.3403 299.44 71.0097C299.44 70.679 299.552 70.4017 299.776 70.1777C300 69.9537 300.277 69.8417 300.608 69.8417C300.928 69.8417 301.2 69.9537 301.424 70.1777C301.648 70.4017 301.76 70.679 301.76 71.0097C301.76 71.3403 301.648 71.6177 301.424 71.8417C301.2 72.0657 300.928 72.1777 300.608 72.1777ZM303.267 69.6337V68.2577L308.643 60.5457H310.851V68.0497H312.339V69.6337H310.851V72.0657H309.059V69.6337H303.267ZM309.139 62.4017L305.363 68.0497H309.139V62.4017ZM313.819 63.2817C313.883 62.2897 314.261 61.5163 314.955 60.9617C315.659 60.407 316.555 60.1297 317.643 60.1297C318.389 60.1297 319.035 60.263 319.579 60.5297C320.123 60.7963 320.533 61.159 320.811 61.6177C321.088 62.0763 321.227 62.5937 321.227 63.1697C321.227 63.831 321.051 64.3963 320.699 64.8657C320.347 65.335 319.925 65.6497 319.435 65.8097V65.8737C320.064 66.0657 320.555 66.4177 320.907 66.9297C321.259 67.431 321.435 68.0763 321.435 68.8657C321.435 69.495 321.291 70.055 321.003 70.5457C320.715 71.0363 320.288 71.4257 319.723 71.7137C319.157 71.991 318.48 72.1297 317.691 72.1297C316.539 72.1297 315.589 71.8363 314.843 71.2497C314.107 70.6523 313.712 69.799 313.659 68.6897H315.419C315.461 69.255 315.68 69.719 316.075 70.0817C316.469 70.4337 317.003 70.6097 317.675 70.6097C318.325 70.6097 318.827 70.4337 319.179 70.0817C319.531 69.719 319.707 69.255 319.707 68.6897C319.707 67.943 319.467 67.415 318.987 67.1057C318.517 66.7857 317.792 66.6257 316.811 66.6257H316.395V65.1217H316.827C317.691 65.111 318.347 64.967 318.795 64.6897C319.253 64.4123 319.483 63.975 319.483 63.3777C319.483 62.8657 319.317 62.4603 318.987 62.1617C318.656 61.8523 318.187 61.6977 317.579 61.6977C316.981 61.6977 316.517 61.8523 316.187 62.1617C315.856 62.4603 315.659 62.8337 315.595 63.2817H313.819Z" fill="white"/>
<path d="M285.358 88.4877H282.376V91.5117H281.186V88.4877H278.218V87.4097H281.186V84.3717H282.376V87.4097H285.358V88.4877ZM287.425 87.8997C287.425 86.2943 287.686 85.0437 288.209 84.1477C288.731 83.2423 289.646 82.7897 290.953 82.7897C292.25 82.7897 293.16 83.2423 293.683 84.1477C294.205 85.0437 294.467 86.2943 294.467 87.8997C294.467 89.533 294.205 90.8023 293.683 91.7077C293.16 92.613 292.25 93.0657 290.953 93.0657C289.646 93.0657 288.731 92.613 288.209 91.7077C287.686 90.8023 287.425 89.533 287.425 87.8997ZM293.207 87.8997C293.207 87.0877 293.151 86.4017 293.039 85.8417C292.936 85.2723 292.717 84.815 292.381 84.4697C292.054 84.1243 291.578 83.9517 290.953 83.9517C290.318 83.9517 289.833 84.1243 289.497 84.4697C289.17 84.815 288.951 85.2723 288.839 85.8417C288.736 86.4017 288.685 87.0877 288.685 87.8997C288.685 88.7397 288.736 89.4443 288.839 90.0137C288.951 90.583 289.17 91.0403 289.497 91.3857C289.833 91.731 290.318 91.9037 290.953 91.9037C291.578 91.9037 292.054 91.731 292.381 91.3857C292.717 91.0403 292.936 90.583 293.039 90.0137C293.151 89.4443 293.207 88.7397 293.207 87.8997ZM296.832 93.1497C296.589 93.1497 296.384 93.0657 296.216 92.8977C296.048 92.7297 295.964 92.5243 295.964 92.2817C295.964 92.039 296.048 91.8337 296.216 91.6657C296.384 91.4977 296.589 91.4137 296.832 91.4137C297.065 91.4137 297.261 91.4977 297.42 91.6657C297.588 91.8337 297.672 92.039 297.672 92.2817C297.672 92.5243 297.588 92.7297 297.42 92.8977C297.261 93.0657 297.065 93.1497 296.832 93.1497ZM299.001 92.0437C300.186 91.0917 301.115 90.3123 301.787 89.7057C302.459 89.0897 303.024 88.4503 303.481 87.7877C303.948 87.1157 304.181 86.4577 304.181 85.8137C304.181 85.207 304.032 84.731 303.733 84.3857C303.444 84.031 302.972 83.8537 302.319 83.8537C301.684 83.8537 301.19 84.0543 300.835 84.4557C300.49 84.8477 300.303 85.375 300.275 86.0377H299.043C299.08 84.9923 299.398 84.185 299.995 83.6157C300.592 83.0463 301.362 82.7617 302.305 82.7617C303.266 82.7617 304.027 83.0277 304.587 83.5597C305.156 84.0917 305.441 84.8243 305.441 85.7577C305.441 86.5323 305.208 87.2883 304.741 88.0257C304.284 88.7537 303.761 89.3977 303.173 89.9577C302.585 90.5083 301.834 91.1523 300.919 91.8897H305.735V92.9537H299.001V92.0437ZM308.846 90.3497C308.939 90.8817 309.154 91.2923 309.49 91.5817C309.835 91.871 310.297 92.0157 310.876 92.0157C311.651 92.0157 312.22 91.7123 312.584 91.1057C312.957 90.499 313.135 89.477 313.116 88.0397C312.92 88.4597 312.593 88.791 312.136 89.0337C311.679 89.267 311.17 89.3837 310.61 89.3837C309.985 89.3837 309.425 89.2577 308.93 89.0057C308.445 88.7443 308.062 88.3663 307.782 87.8717C307.502 87.377 307.362 86.7797 307.362 86.0797C307.362 85.081 307.651 84.2783 308.23 83.6717C308.809 83.0557 309.63 82.7477 310.694 82.7477C312.001 82.7477 312.915 83.1723 313.438 84.0217C313.97 84.871 314.236 86.1357 314.236 87.8157C314.236 88.9917 314.129 89.9623 313.914 90.7277C313.709 91.493 313.354 92.0763 312.85 92.4777C312.355 92.879 311.674 93.0797 310.806 93.0797C309.854 93.0797 309.112 92.823 308.58 92.3097C308.048 91.7963 307.745 91.143 307.67 90.3497H308.846ZM310.82 88.3057C311.445 88.3057 311.959 88.1143 312.36 87.7317C312.761 87.3397 312.962 86.8123 312.962 86.1497C312.962 85.4497 312.766 84.885 312.374 84.4557C311.982 84.0263 311.431 83.8117 310.722 83.8117C310.069 83.8117 309.546 84.017 309.154 84.4277C308.771 84.8383 308.58 85.3797 308.58 86.0517C308.58 86.733 308.771 87.279 309.154 87.6897C309.537 88.1003 310.092 88.3057 310.82 88.3057Z" fill="#B0B0B0"/>
<rect x="34" y="138.566" width="60" height="60" rx="8" fill="#FFD84E" fill-opacity="0.05"/>
<g clip-path="url(#clip2_1_6768)">
<path d="M64.0005 164.108C64.6584 164.108 65.2124 163.776 65.2845 163.35L65.9368 156.214C65.9368 155.508 65.0754 154.929 64.0005 154.929C62.9198 154.929 62.0642 155.508 62.0642 156.214L62.7221 163.35C62.7914 163.776 63.3426 164.108 64.0005 164.108Z" fill="#FCB61A"/>
<path d="M59.9992 166.341C60.3253 165.783 60.3064 165.165 59.9544 164.889L53.8658 160.776C53.2325 160.419 52.2845 160.844 51.742 161.744C51.2009 162.643 51.3106 163.652 51.931 164.002L58.6717 167.021C59.1031 167.177 59.6672 166.887 59.9992 166.335" fill="#FCB61A"/>
<path d="M68.001 166.335C68.3457 166.887 68.9098 167.177 69.3298 167.029L76.0706 164.002C76.6967 163.645 76.7905 162.646 76.261 161.747C75.72 160.847 74.7662 160.425 74.1343 160.774L68.0443 164.883C67.7067 165.163 67.6822 165.785 68.0081 166.341" fill="#FCB61A"/>
<path d="M64.0005 173.022C64.6584 173.022 65.2124 173.353 65.2845 173.78L65.9368 180.916C65.9368 181.622 65.0754 182.195 64.0005 182.195C62.9198 182.195 62.0642 181.622 62.0642 180.916L62.7221 173.78C62.7914 173.353 63.3426 173.022 64.0005 173.022Z" fill="#FCB61A"/>
<path d="M68.001 170.795C68.3457 170.242 68.9098 169.946 69.3298 170.107L76.0706 173.128C76.6967 173.478 76.7905 174.486 76.261 175.386C75.72 176.279 74.7662 176.704 74.1343 176.355L68.0443 172.24C67.7067 171.963 67.6822 171.344 68.0081 170.795" fill="#FCB61A"/>
<path d="M59.9992 170.789C60.3253 171.345 60.3064 171.962 59.9544 172.241L53.8658 176.348C53.2325 176.705 52.2845 176.279 51.742 175.385C51.2009 174.486 51.3106 173.477 51.931 173.128L58.6717 170.106C59.1031 169.947 59.6672 170.24 59.9992 170.789Z" fill="#FCB61A"/>
</g>
<path d="M123.68 152.946L120.384 164.066H118.32L115.984 155.65L113.504 164.066L111.456 164.082L108.304 152.946H110.24L112.544 162.002L115.04 152.946H117.088L119.408 161.954L121.728 152.946H123.68ZM136.896 152.946V164.066H135.072V156.45L131.68 164.066H130.416L127.008 156.45V164.066H125.184V152.946H127.152L131.056 161.666L134.944 152.946H136.896ZM146.478 152.946V154.434H143.518V164.066H141.694V154.434H138.718V152.946H146.478Z" fill="white"/>
<path d="M121.342 175.308L118.514 185.066H117.086L114.818 177.212L112.466 185.066L111.052 185.08L108.322 175.308H109.68L111.808 183.582L114.16 175.308H115.588L117.828 183.554L119.97 175.308H121.342ZM122.26 181.202C122.26 180.418 122.419 179.732 122.736 179.144C123.054 178.546 123.488 178.084 124.038 177.758C124.598 177.431 125.219 177.268 125.9 177.268C126.572 177.268 127.156 177.412 127.65 177.702C128.145 177.991 128.514 178.355 128.756 178.794V177.394H130.044V185.066H128.756V183.638C128.504 184.086 128.126 184.459 127.622 184.758C127.128 185.047 126.549 185.192 125.886 185.192C125.205 185.192 124.589 185.024 124.038 184.688C123.488 184.352 123.054 183.88 122.736 183.274C122.419 182.667 122.26 181.976 122.26 181.202ZM128.756 181.216C128.756 180.637 128.64 180.133 128.406 179.704C128.173 179.274 127.856 178.948 127.454 178.724C127.062 178.49 126.628 178.374 126.152 178.374C125.676 178.374 125.242 178.486 124.85 178.71C124.458 178.934 124.146 179.26 123.912 179.69C123.679 180.119 123.562 180.623 123.562 181.202C123.562 181.79 123.679 182.303 123.912 182.742C124.146 183.171 124.458 183.502 124.85 183.736C125.242 183.96 125.676 184.072 126.152 184.072C126.628 184.072 127.062 183.96 127.454 183.736C127.856 183.502 128.173 183.171 128.406 182.742C128.64 182.303 128.756 181.794 128.756 181.216ZM133.471 174.706V185.066H132.197V174.706H133.471ZM144.868 177.254C145.466 177.254 145.998 177.38 146.464 177.632C146.931 177.874 147.3 178.243 147.57 178.738C147.841 179.232 147.976 179.834 147.976 180.544V185.066H146.716V180.726C146.716 179.96 146.525 179.377 146.142 178.976C145.769 178.565 145.26 178.36 144.616 178.36C143.954 178.36 143.426 178.574 143.034 179.004C142.642 179.424 142.446 180.035 142.446 180.838V185.066H141.186V180.726C141.186 179.96 140.995 179.377 140.612 178.976C140.239 178.565 139.73 178.36 139.086 178.36C138.424 178.36 137.896 178.574 137.504 179.004C137.112 179.424 136.916 180.035 136.916 180.838V185.066H135.642V177.394H136.916V178.5C137.168 178.098 137.504 177.79 137.924 177.576C138.354 177.361 138.825 177.254 139.338 177.254C139.982 177.254 140.552 177.398 141.046 177.688C141.541 177.977 141.91 178.402 142.152 178.962C142.367 178.42 142.722 178 143.216 177.702C143.711 177.403 144.262 177.254 144.868 177.254ZM149.59 181.202C149.59 180.418 149.749 179.732 150.066 179.144C150.384 178.546 150.818 178.084 151.368 177.758C151.928 177.431 152.549 177.268 153.23 177.268C153.902 177.268 154.486 177.412 154.98 177.702C155.475 177.991 155.844 178.355 156.086 178.794V177.394H157.374V185.066H156.086V183.638C155.834 184.086 155.456 184.459 154.952 184.758C154.458 185.047 153.879 185.192 153.216 185.192C152.535 185.192 151.919 185.024 151.368 184.688C150.818 184.352 150.384 183.88 150.066 183.274C149.749 182.667 149.59 181.976 149.59 181.202ZM156.086 181.216C156.086 180.637 155.97 180.133 155.736 179.704C155.503 179.274 155.186 178.948 154.784 178.724C154.392 178.49 153.958 178.374 153.482 178.374C153.006 178.374 152.572 178.486 152.18 178.71C151.788 178.934 151.476 179.26 151.242 179.69C151.009 180.119 150.892 180.623 150.892 181.202C150.892 181.79 151.009 182.303 151.242 182.742C151.476 183.171 151.788 183.502 152.18 183.736C152.572 183.96 153.006 184.072 153.482 184.072C153.958 184.072 154.392 183.96 154.784 183.736C155.186 183.502 155.503 183.171 155.736 182.742C155.97 182.303 156.086 181.794 156.086 181.216ZM160.801 178.64C161.025 178.201 161.343 177.86 161.753 177.618C162.173 177.375 162.682 177.254 163.279 177.254V178.57H162.943C161.515 178.57 160.801 179.344 160.801 180.894V185.066H159.527V177.394H160.801V178.64ZM166.304 178.444V182.966C166.304 183.339 166.383 183.605 166.542 183.764C166.701 183.913 166.976 183.988 167.368 183.988H168.306V185.066H167.158C166.449 185.066 165.917 184.902 165.562 184.576C165.207 184.249 165.03 183.712 165.03 182.966V178.444H164.036V177.394H165.03V175.462H166.304V177.394H168.306V178.444H166.304Z" fill="#B6B6B6"/>
<path d="M196.22 154.066V152.402H199.548V164.066H197.708V154.066H196.22ZM201.83 161.634V160.258L207.206 152.546H209.414V160.05H210.902V161.634H209.414V164.066H207.622V161.634H201.83ZM207.702 154.402L203.926 160.05H207.702V154.402ZM214.381 157.97C213.272 157.415 212.717 156.54 212.717 155.346C212.717 154.77 212.861 154.242 213.149 153.762C213.437 153.282 213.869 152.903 214.445 152.626C215.021 152.338 215.725 152.194 216.557 152.194C217.378 152.194 218.077 152.338 218.653 152.626C219.24 152.903 219.677 153.282 219.965 153.762C220.253 154.242 220.397 154.77 220.397 155.346C220.397 155.943 220.242 156.471 219.933 156.93C219.634 157.378 219.234 157.724 218.733 157.97C219.341 158.194 219.821 158.562 220.173 159.074C220.525 159.575 220.701 160.167 220.701 160.85C220.701 161.543 220.525 162.156 220.173 162.69C219.821 163.223 219.33 163.634 218.701 163.922C218.072 164.21 217.357 164.354 216.557 164.354C215.757 164.354 215.042 164.21 214.413 163.922C213.794 163.634 213.309 163.223 212.957 162.69C212.605 162.156 212.429 161.543 212.429 160.85C212.429 160.156 212.605 159.559 212.957 159.058C213.309 158.556 213.784 158.194 214.381 157.97ZM218.653 155.57C218.653 154.972 218.466 154.514 218.093 154.194C217.72 153.874 217.208 153.714 216.557 153.714C215.917 153.714 215.41 153.874 215.037 154.194C214.664 154.514 214.477 154.978 214.477 155.586C214.477 156.119 214.669 156.556 215.053 156.898C215.448 157.228 215.949 157.394 216.557 157.394C217.165 157.394 217.666 157.223 218.061 156.882C218.456 156.54 218.653 156.103 218.653 155.57ZM216.557 158.77C215.853 158.77 215.277 158.946 214.829 159.298C214.392 159.639 214.173 160.135 214.173 160.786C214.173 161.394 214.386 161.89 214.813 162.274C215.24 162.647 215.821 162.834 216.557 162.834C217.282 162.834 217.853 162.642 218.269 162.258C218.696 161.874 218.909 161.383 218.909 160.786C218.909 160.146 218.69 159.65 218.253 159.298C217.826 158.946 217.261 158.77 216.557 158.77ZM223.592 164.178C223.262 164.178 222.984 164.066 222.76 163.842C222.536 163.618 222.424 163.34 222.424 163.01C222.424 162.679 222.536 162.402 222.76 162.178C222.984 161.954 223.262 161.842 223.592 161.842C223.912 161.842 224.184 161.954 224.408 162.178C224.632 162.402 224.744 162.679 224.744 163.01C224.744 163.34 224.632 163.618 224.408 163.842C224.184 164.066 223.912 164.178 223.592 164.178ZM233.996 153.97H228.636V157.154C228.86 156.855 229.19 156.604 229.628 156.402C230.076 156.199 230.55 156.098 231.052 156.098C231.948 156.098 232.673 156.29 233.228 156.674C233.793 157.058 234.193 157.543 234.428 158.13C234.673 158.716 234.796 159.335 234.796 159.986C234.796 160.775 234.641 161.479 234.332 162.098C234.033 162.706 233.58 163.186 232.972 163.538C232.374 163.89 231.638 164.066 230.764 164.066C229.601 164.066 228.668 163.778 227.964 163.202C227.26 162.626 226.838 161.863 226.7 160.914H228.476C228.593 161.415 228.854 161.815 229.26 162.114C229.665 162.402 230.172 162.546 230.78 162.546C231.537 162.546 232.102 162.316 232.476 161.858C232.86 161.399 233.052 160.791 233.052 160.034C233.052 159.266 232.86 158.679 232.476 158.274C232.092 157.858 231.526 157.65 230.78 157.65C230.257 157.65 229.814 157.783 229.452 158.05C229.1 158.306 228.844 158.658 228.684 159.106H226.956V152.37H233.996V153.97ZM236.454 154.066V152.402H239.782V164.066H237.942V154.066H236.454Z" fill="white"/>
<path d="M197.824 175.308V181.482C197.824 182.35 198.034 182.994 198.454 183.414C198.883 183.834 199.476 184.044 200.232 184.044C200.979 184.044 201.562 183.834 201.982 183.414C202.411 182.994 202.626 182.35 202.626 181.482V175.308H203.9V181.468C203.9 182.28 203.737 182.966 203.41 183.526C203.083 184.076 202.64 184.487 202.08 184.758C201.529 185.028 200.909 185.164 200.218 185.164C199.527 185.164 198.902 185.028 198.342 184.758C197.791 184.487 197.353 184.076 197.026 183.526C196.709 182.966 196.55 182.28 196.55 181.468V175.308H197.824ZM209.119 185.164C208.475 185.164 207.897 185.052 207.383 184.828C206.879 184.594 206.483 184.277 206.193 183.876C205.904 183.465 205.755 182.994 205.745 182.462H207.103C207.15 182.919 207.337 183.306 207.663 183.624C207.999 183.932 208.485 184.086 209.119 184.086C209.726 184.086 210.202 183.936 210.547 183.638C210.902 183.33 211.079 182.938 211.079 182.462C211.079 182.088 210.977 181.785 210.771 181.552C210.566 181.318 210.309 181.141 210.001 181.02C209.693 180.898 209.278 180.768 208.755 180.628C208.111 180.46 207.593 180.292 207.201 180.124C206.819 179.956 206.487 179.694 206.207 179.34C205.937 178.976 205.801 178.49 205.801 177.884C205.801 177.352 205.937 176.88 206.207 176.47C206.478 176.059 206.856 175.742 207.341 175.518C207.836 175.294 208.401 175.182 209.035 175.182C209.95 175.182 210.697 175.41 211.275 175.868C211.863 176.325 212.195 176.932 212.269 177.688H210.869C210.823 177.314 210.627 176.988 210.281 176.708C209.936 176.418 209.479 176.274 208.909 176.274C208.377 176.274 207.943 176.414 207.607 176.694C207.271 176.964 207.103 177.347 207.103 177.842C207.103 178.196 207.201 178.486 207.397 178.71C207.603 178.934 207.85 179.106 208.139 179.228C208.438 179.34 208.853 179.47 209.385 179.62C210.029 179.797 210.547 179.974 210.939 180.152C211.331 180.32 211.667 180.586 211.947 180.95C212.227 181.304 212.367 181.79 212.367 182.406C212.367 182.882 212.241 183.33 211.989 183.75C211.737 184.17 211.364 184.51 210.869 184.772C210.375 185.033 209.791 185.164 209.119 185.164ZM217.28 175.308C218.344 175.308 219.263 175.508 220.038 175.91C220.822 176.302 221.419 176.866 221.83 177.604C222.25 178.341 222.46 179.209 222.46 180.208C222.46 181.206 222.25 182.074 221.83 182.812C221.419 183.54 220.822 184.1 220.038 184.492C219.263 184.874 218.344 185.066 217.28 185.066H214.242V175.308H217.28ZM217.28 184.016C218.54 184.016 219.501 183.684 220.164 183.022C220.827 182.35 221.158 181.412 221.158 180.208C221.158 178.994 220.822 178.047 220.15 177.366C219.487 176.684 218.531 176.344 217.28 176.344H215.516V184.016H217.28Z" fill="#B0B0B0"/>
<path d="M292.792 159.058H289.56V162.37H287.864V159.058H284.632V157.522H287.864V154.21H289.56V157.522H292.792V159.058ZM295.142 154.066V152.402H298.47V164.066H296.63V154.066H295.142ZM301.952 164.178C301.621 164.178 301.344 164.066 301.12 163.842C300.896 163.618 300.784 163.34 300.784 163.01C300.784 162.679 300.896 162.402 301.12 162.178C301.344 161.954 301.621 161.842 301.952 161.842C302.272 161.842 302.544 161.954 302.768 162.178C302.992 162.402 303.104 162.679 303.104 163.01C303.104 163.34 302.992 163.618 302.768 163.842C302.544 164.066 302.272 164.178 301.952 164.178ZM312.227 153.81L307.779 164.066H305.939L310.435 154.002H304.515V152.45H312.227V153.81ZM313.756 155.282C313.82 154.29 314.199 153.516 314.892 152.962C315.596 152.407 316.492 152.13 317.58 152.13C318.327 152.13 318.972 152.263 319.516 152.53C320.06 152.796 320.471 153.159 320.748 153.618C321.025 154.076 321.164 154.594 321.164 155.17C321.164 155.831 320.988 156.396 320.636 156.866C320.284 157.335 319.863 157.65 319.372 157.81V157.874C320.001 158.066 320.492 158.418 320.844 158.93C321.196 159.431 321.372 160.076 321.372 160.866C321.372 161.495 321.228 162.055 320.94 162.546C320.652 163.036 320.225 163.426 319.66 163.714C319.095 163.991 318.417 164.13 317.628 164.13C316.476 164.13 315.527 163.836 314.78 163.25C314.044 162.652 313.649 161.799 313.596 160.69H315.356C315.399 161.255 315.617 161.719 316.012 162.082C316.407 162.434 316.94 162.61 317.612 162.61C318.263 162.61 318.764 162.434 319.116 162.082C319.468 161.719 319.644 161.255 319.644 160.69C319.644 159.943 319.404 159.415 318.924 159.106C318.455 158.786 317.729 158.626 316.748 158.626H316.332V157.122H316.764C317.628 157.111 318.284 156.967 318.732 156.69C319.191 156.412 319.42 155.975 319.42 155.378C319.42 154.866 319.255 154.46 318.924 154.162C318.593 153.852 318.124 153.698 317.516 153.698C316.919 153.698 316.455 153.852 316.124 154.162C315.793 154.46 315.596 154.834 315.532 155.282H313.756Z" fill="white"/>
<path d="M291.358 180.488H288.376V183.512H287.186V180.488H284.218V179.41H287.186V176.372H288.376V179.41H291.358V180.488ZM293.089 176.106V174.944H295.721V185.066H294.433V176.106H293.089ZM298.525 185.15C298.282 185.15 298.077 185.066 297.909 184.898C297.741 184.73 297.657 184.524 297.657 184.282C297.657 184.039 297.741 183.834 297.909 183.666C298.077 183.498 298.282 183.414 298.525 183.414C298.758 183.414 298.954 183.498 299.113 183.666C299.281 183.834 299.365 184.039 299.365 184.282C299.365 184.524 299.281 184.73 299.113 184.898C298.954 185.066 298.758 185.15 298.525 185.15ZM300.54 182.812V181.846L305.454 175.042H306.98V181.706H308.38V182.812H306.98V185.066H305.72V182.812H300.54ZM305.776 176.372L302.01 181.706H305.776V176.372ZM311.291 182.35C311.384 182.882 311.599 183.292 311.935 183.582C312.28 183.871 312.742 184.016 313.321 184.016C314.096 184.016 314.665 183.712 315.029 183.106C315.402 182.499 315.58 181.477 315.561 180.04C315.365 180.46 315.038 180.791 314.581 181.034C314.124 181.267 313.615 181.384 313.055 181.384C312.43 181.384 311.87 181.258 311.375 181.006C310.89 180.744 310.507 180.366 310.227 179.872C309.947 179.377 309.807 178.78 309.807 178.08C309.807 177.081 310.096 176.278 310.675 175.672C311.254 175.056 312.075 174.748 313.139 174.748C314.446 174.748 315.36 175.172 315.883 176.022C316.415 176.871 316.681 178.136 316.681 179.816C316.681 180.992 316.574 181.962 316.359 182.728C316.154 183.493 315.799 184.076 315.295 184.478C314.8 184.879 314.119 185.08 313.251 185.08C312.299 185.08 311.557 184.823 311.025 184.31C310.493 183.796 310.19 183.143 310.115 182.35H311.291ZM313.265 180.306C313.89 180.306 314.404 180.114 314.805 179.732C315.206 179.34 315.407 178.812 315.407 178.15C315.407 177.45 315.211 176.885 314.819 176.456C314.427 176.026 313.876 175.812 313.167 175.812C312.514 175.812 311.991 176.017 311.599 176.428C311.216 176.838 311.025 177.38 311.025 178.052C311.025 178.733 311.216 179.279 311.599 179.69C311.982 180.1 312.537 180.306 313.265 180.306Z" fill="#B0B0B0"/>
</g>
<path d="M82.3377 275.586C82.3377 274.226 82.651 273.006 83.2777 271.926C83.9177 270.846 84.7777 270.006 85.8577 269.406C86.951 268.792 88.1443 268.486 89.4377 268.486C90.9177 268.486 92.231 268.852 93.3777 269.586C94.5377 270.306 95.3777 271.332 95.8977 272.666H93.1577C92.7977 271.932 92.2977 271.386 91.6577 271.026C91.0177 270.666 90.2777 270.486 89.4377 270.486C88.5177 270.486 87.6977 270.692 86.9777 271.106C86.2577 271.519 85.691 272.112 85.2777 272.886C84.8777 273.659 84.6777 274.559 84.6777 275.586C84.6777 276.612 84.8777 277.512 85.2777 278.286C85.691 279.059 86.2577 279.659 86.9777 280.086C87.6977 280.499 88.5177 280.706 89.4377 280.706C90.2777 280.706 91.0177 280.526 91.6577 280.166C92.2977 279.806 92.7977 279.259 93.1577 278.526H95.8977C95.3777 279.859 94.5377 280.886 93.3777 281.606C92.231 282.326 90.9177 282.686 89.4377 282.686C88.131 282.686 86.9377 282.386 85.8577 281.786C84.7777 281.172 83.9177 280.326 83.2777 279.246C82.651 278.166 82.3377 276.946 82.3377 275.586ZM108.546 271.546V282.566H106.266V281.266C105.906 281.719 105.433 282.079 104.846 282.346C104.273 282.599 103.66 282.726 103.006 282.726C102.14 282.726 101.36 282.546 100.666 282.186C99.9864 281.826 99.4464 281.292 99.0464 280.586C98.6597 279.879 98.4664 279.026 98.4664 278.026V271.546H100.726V277.686C100.726 278.672 100.973 279.432 101.466 279.966C101.96 280.486 102.633 280.746 103.486 280.746C104.34 280.746 105.013 280.486 105.506 279.966C106.013 279.432 106.266 278.672 106.266 277.686V271.546H108.546ZM116.335 282.746C115.295 282.746 114.355 282.512 113.515 282.046C112.675 281.566 112.015 280.899 111.535 280.046C111.055 279.179 110.815 278.179 110.815 277.046C110.815 275.926 111.061 274.932 111.555 274.066C112.048 273.199 112.721 272.532 113.575 272.066C114.428 271.599 115.381 271.366 116.435 271.366C117.488 271.366 118.441 271.599 119.295 272.066C120.148 272.532 120.821 273.199 121.315 274.066C121.808 274.932 122.055 275.926 122.055 277.046C122.055 278.166 121.801 279.159 121.295 280.026C120.788 280.892 120.095 281.566 119.215 282.046C118.348 282.512 117.388 282.746 116.335 282.746ZM116.335 280.766C116.921 280.766 117.468 280.626 117.975 280.346C118.495 280.066 118.915 279.646 119.235 279.086C119.555 278.526 119.715 277.846 119.715 277.046C119.715 276.246 119.561 275.572 119.255 275.026C118.948 274.466 118.541 274.046 118.035 273.766C117.528 273.486 116.981 273.346 116.395 273.346C115.808 273.346 115.261 273.486 114.755 273.766C114.261 274.046 113.868 274.466 113.575 275.026C113.281 275.572 113.135 276.246 113.135 277.046C113.135 278.232 113.435 279.152 114.035 279.806C114.648 280.446 115.415 280.766 116.335 280.766ZM126.969 273.406V279.506C126.969 279.919 127.062 280.219 127.249 280.406C127.449 280.579 127.782 280.666 128.249 280.666H129.649V282.566H127.849C126.822 282.566 126.035 282.326 125.489 281.846C124.942 281.366 124.669 280.586 124.669 279.506V273.406H123.369V271.546H124.669V268.806H126.969V271.546H129.649V273.406H126.969ZM130.99 277.006C130.99 275.899 131.217 274.919 131.67 274.066C132.137 273.212 132.763 272.552 133.55 272.086C134.35 271.606 135.23 271.366 136.19 271.366C137.057 271.366 137.81 271.539 138.45 271.886C139.103 272.219 139.623 272.639 140.01 273.146V271.546H142.31V282.566H140.01V280.926C139.623 281.446 139.097 281.879 138.43 282.226C137.763 282.572 137.003 282.746 136.15 282.746C135.203 282.746 134.337 282.506 133.55 282.026C132.763 281.532 132.137 280.852 131.67 279.986C131.217 279.106 130.99 278.112 130.99 277.006ZM140.01 277.046C140.01 276.286 139.85 275.626 139.53 275.066C139.223 274.506 138.817 274.079 138.31 273.786C137.803 273.492 137.257 273.346 136.67 273.346C136.083 273.346 135.537 273.492 135.03 273.786C134.523 274.066 134.11 274.486 133.79 275.046C133.483 275.592 133.33 276.246 133.33 277.006C133.33 277.766 133.483 278.432 133.79 279.006C134.11 279.579 134.523 280.019 135.03 280.326C135.55 280.619 136.097 280.766 136.67 280.766C137.257 280.766 137.803 280.619 138.31 280.326C138.817 280.032 139.223 279.606 139.53 279.046C139.85 278.472 140.01 277.806 140.01 277.046ZM149.305 282.746C148.438 282.746 147.658 282.592 146.965 282.286C146.285 281.966 145.745 281.539 145.345 281.006C144.945 280.459 144.731 279.852 144.705 279.186H147.065C147.105 279.652 147.325 280.046 147.725 280.366C148.138 280.672 148.651 280.826 149.265 280.826C149.905 280.826 150.398 280.706 150.745 280.466C151.105 280.212 151.285 279.892 151.285 279.506C151.285 279.092 151.085 278.786 150.685 278.586C150.298 278.386 149.678 278.166 148.825 277.926C147.998 277.699 147.325 277.479 146.805 277.266C146.285 277.052 145.831 276.726 145.445 276.286C145.071 275.846 144.885 275.266 144.885 274.546C144.885 273.959 145.058 273.426 145.405 272.946C145.751 272.452 146.245 272.066 146.885 271.786C147.538 271.506 148.285 271.366 149.125 271.366C150.378 271.366 151.385 271.686 152.145 272.326C152.918 272.952 153.331 273.812 153.385 274.906H151.105C151.065 274.412 150.865 274.019 150.505 273.726C150.145 273.432 149.658 273.286 149.045 273.286C148.445 273.286 147.985 273.399 147.665 273.626C147.345 273.852 147.185 274.152 147.185 274.526C147.185 274.819 147.291 275.066 147.505 275.266C147.718 275.466 147.978 275.626 148.285 275.746C148.591 275.852 149.045 275.992 149.645 276.166C150.445 276.379 151.098 276.599 151.605 276.826C152.125 277.039 152.571 277.359 152.945 277.786C153.318 278.212 153.511 278.779 153.525 279.486C153.525 280.112 153.351 280.672 153.005 281.166C152.658 281.659 152.165 282.046 151.525 282.326C150.898 282.606 150.158 282.746 149.305 282.746ZM171.284 276.786C171.284 277.199 171.257 277.572 171.204 277.906H162.784C162.85 278.786 163.177 279.492 163.764 280.026C164.35 280.559 165.07 280.826 165.924 280.826C167.15 280.826 168.017 280.312 168.524 279.286H170.984C170.65 280.299 170.044 281.132 169.164 281.786C168.297 282.426 167.217 282.746 165.924 282.746C164.87 282.746 163.924 282.512 163.084 282.046C162.257 281.566 161.604 280.899 161.124 280.046C160.657 279.179 160.424 278.179 160.424 277.046C160.424 275.912 160.65 274.919 161.104 274.066C161.57 273.199 162.217 272.532 163.044 272.066C163.884 271.599 164.844 271.366 165.924 271.366C166.964 271.366 167.89 271.592 168.704 272.046C169.517 272.499 170.15 273.139 170.604 273.966C171.057 274.779 171.284 275.719 171.284 276.786ZM168.904 276.066C168.89 275.226 168.59 274.552 168.004 274.046C167.417 273.539 166.69 273.286 165.824 273.286C165.037 273.286 164.364 273.539 163.804 274.046C163.244 274.539 162.91 275.212 162.804 276.066H168.904ZM179.087 271.366C179.954 271.366 180.727 271.546 181.407 271.906C182.101 272.266 182.641 272.799 183.027 273.506C183.414 274.212 183.607 275.066 183.607 276.066V282.566H181.347V276.406C181.347 275.419 181.101 274.666 180.607 274.146C180.114 273.612 179.441 273.346 178.587 273.346C177.734 273.346 177.054 273.612 176.547 274.146C176.054 274.666 175.807 275.419 175.807 276.406V282.566H173.527V271.546H175.807V272.806C176.181 272.352 176.654 271.999 177.227 271.746C177.814 271.492 178.434 271.366 179.087 271.366ZM194.371 273.406V279.506C194.371 279.919 194.464 280.219 194.651 280.406C194.851 280.579 195.184 280.666 195.651 280.666H197.051V282.566H195.251C194.224 282.566 193.438 282.326 192.891 281.846C192.344 281.366 192.071 280.586 192.071 279.506V273.406H190.771V271.546H192.071V268.806H194.371V271.546H197.051V273.406H194.371ZM200.312 270.086C199.899 270.086 199.552 269.946 199.272 269.666C198.992 269.386 198.852 269.039 198.852 268.626C198.852 268.212 198.992 267.866 199.272 267.586C199.552 267.306 199.899 267.166 200.312 267.166C200.712 267.166 201.052 267.306 201.332 267.586C201.612 267.866 201.752 268.212 201.752 268.626C201.752 269.039 201.612 269.386 201.332 269.666C201.052 269.946 200.712 270.086 200.312 270.086ZM201.432 271.546V282.566H199.152V271.546H201.432ZM214.526 276.786C214.526 277.199 214.499 277.572 214.446 277.906H206.026C206.092 278.786 206.419 279.492 207.006 280.026C207.592 280.559 208.312 280.826 209.166 280.826C210.392 280.826 211.259 280.312 211.766 279.286H214.226C213.892 280.299 213.286 281.132 212.406 281.786C211.539 282.426 210.459 282.746 209.166 282.746C208.112 282.746 207.166 282.512 206.326 282.046C205.499 281.566 204.846 280.899 204.366 280.046C203.899 279.179 203.666 278.179 203.666 277.046C203.666 275.912 203.892 274.919 204.346 274.066C204.812 273.199 205.459 272.532 206.286 272.066C207.126 271.599 208.086 271.366 209.166 271.366C210.206 271.366 211.132 271.592 211.946 272.046C212.759 272.499 213.392 273.139 213.846 273.966C214.299 274.779 214.526 275.719 214.526 276.786ZM212.146 276.066C212.132 275.226 211.832 274.552 211.246 274.046C210.659 273.539 209.932 273.286 209.066 273.286C208.279 273.286 207.606 273.539 207.046 274.046C206.486 274.539 206.152 275.212 206.046 276.066H212.146ZM230.11 271.366C230.976 271.366 231.75 271.546 232.43 271.906C233.123 272.266 233.663 272.799 234.05 273.506C234.45 274.212 234.65 275.066 234.65 276.066V282.566H232.39V276.406C232.39 275.419 232.143 274.666 231.65 274.146C231.156 273.612 230.483 273.346 229.63 273.346C228.776 273.346 228.096 273.612 227.59 274.146C227.096 274.666 226.85 275.419 226.85 276.406V282.566H224.59V276.406C224.59 275.419 224.343 274.666 223.85 274.146C223.356 273.612 222.683 273.346 221.83 273.346C220.976 273.346 220.296 273.612 219.79 274.146C219.296 274.666 219.05 275.419 219.05 276.406V282.566H216.77V271.546H219.05V272.806C219.423 272.352 219.896 271.999 220.47 271.746C221.043 271.492 221.656 271.366 222.31 271.366C223.19 271.366 223.976 271.552 224.67 271.926C225.363 272.299 225.896 272.839 226.27 273.546C226.603 272.879 227.123 272.352 227.83 271.966C228.536 271.566 229.296 271.366 230.11 271.366ZM239.831 273.166C240.217 272.659 240.744 272.232 241.411 271.886C242.077 271.539 242.831 271.366 243.671 271.366C244.631 271.366 245.504 271.606 246.291 272.086C247.091 272.552 247.717 273.212 248.171 274.066C248.624 274.919 248.851 275.899 248.851 277.006C248.851 278.112 248.624 279.106 248.171 279.986C247.717 280.852 247.091 281.532 246.291 282.026C245.504 282.506 244.631 282.746 243.671 282.746C242.831 282.746 242.084 282.579 241.431 282.246C240.777 281.899 240.244 281.472 239.831 280.966V287.806H237.551V271.546H239.831V273.166ZM246.531 277.006C246.531 276.246 246.371 275.592 246.051 275.046C245.744 274.486 245.331 274.066 244.811 273.786C244.304 273.492 243.757 273.346 243.171 273.346C242.597 273.346 242.051 273.492 241.531 273.786C241.024 274.079 240.611 274.506 240.291 275.066C239.984 275.626 239.831 276.286 239.831 277.046C239.831 277.806 239.984 278.472 240.291 279.046C240.611 279.606 241.024 280.032 241.531 280.326C242.051 280.619 242.597 280.766 243.171 280.766C243.757 280.766 244.304 280.619 244.811 280.326C245.331 280.019 245.744 279.579 246.051 279.006C246.371 278.432 246.531 277.766 246.531 277.006ZM255.885 282.746C254.845 282.746 253.905 282.512 253.065 282.046C252.225 281.566 251.565 280.899 251.085 280.046C250.605 279.179 250.365 278.179 250.365 277.046C250.365 275.926 250.612 274.932 251.105 274.066C251.599 273.199 252.272 272.532 253.125 272.066C253.979 271.599 254.932 271.366 255.985 271.366C257.039 271.366 257.992 271.599 258.845 272.066C259.699 272.532 260.372 273.199 260.865 274.066C261.359 274.932 261.605 275.926 261.605 277.046C261.605 278.166 261.352 279.159 260.845 280.026C260.339 280.892 259.645 281.566 258.765 282.046C257.899 282.512 256.939 282.746 255.885 282.746ZM255.885 280.766C256.472 280.766 257.019 280.626 257.525 280.346C258.045 280.066 258.465 279.646 258.785 279.086C259.105 278.526 259.265 277.846 259.265 277.046C259.265 276.246 259.112 275.572 258.805 275.026C258.499 274.466 258.092 274.046 257.585 273.766C257.079 273.486 256.532 273.346 255.945 273.346C255.359 273.346 254.812 273.486 254.305 273.766C253.812 274.046 253.419 274.466 253.125 275.026C252.832 275.572 252.685 276.246 252.685 277.046C252.685 278.232 252.985 279.152 253.585 279.806C254.199 280.446 254.965 280.766 255.885 280.766ZM271.335 273.146C271.668 272.586 272.108 272.152 272.655 271.846C273.215 271.526 273.875 271.366 274.635 271.366V273.726H274.055C273.161 273.726 272.481 273.952 272.015 274.406C271.561 274.859 271.335 275.646 271.335 276.766V282.566H269.055V271.546H271.335V273.146ZM286.83 276.786C286.83 277.199 286.804 277.572 286.75 277.906H278.33C278.397 278.786 278.724 279.492 279.31 280.026C279.897 280.559 280.617 280.826 281.47 280.826C282.697 280.826 283.564 280.312 284.07 279.286H286.53C286.197 280.299 285.59 281.132 284.71 281.786C283.844 282.426 282.764 282.746 281.47 282.746C280.417 282.746 279.47 282.512 278.63 282.046C277.804 281.566 277.15 280.899 276.67 280.046C276.204 279.179 275.97 278.179 275.97 277.046C275.97 275.912 276.197 274.919 276.65 274.066C277.117 273.199 277.764 272.532 278.59 272.066C279.43 271.599 280.39 271.366 281.47 271.366C282.51 271.366 283.437 271.592 284.25 272.046C285.064 272.499 285.697 273.139 286.15 273.966C286.604 274.779 286.83 275.719 286.83 276.786ZM284.45 276.066C284.437 275.226 284.137 274.552 283.55 274.046C282.964 273.539 282.237 273.286 281.37 273.286C280.584 273.286 279.91 273.539 279.35 274.046C278.79 274.539 278.457 275.212 278.35 276.066H284.45ZM288.314 277.006C288.314 275.899 288.541 274.919 288.994 274.066C289.461 273.212 290.088 272.552 290.874 272.086C291.674 271.606 292.554 271.366 293.514 271.366C294.381 271.366 295.134 271.539 295.774 271.886C296.428 272.219 296.948 272.639 297.334 273.146V271.546H299.634V282.566H297.334V280.926C296.948 281.446 296.421 281.879 295.754 282.226C295.088 282.572 294.328 282.746 293.474 282.746C292.528 282.746 291.661 282.506 290.874 282.026C290.088 281.532 289.461 280.852 288.994 279.986C288.541 279.106 288.314 278.112 288.314 277.006ZM297.334 277.046C297.334 276.286 297.174 275.626 296.854 275.066C296.548 274.506 296.141 274.079 295.634 273.786C295.128 273.492 294.581 273.346 293.994 273.346C293.408 273.346 292.861 273.492 292.354 273.786C291.848 274.066 291.434 274.486 291.114 275.046C290.808 275.592 290.654 276.246 290.654 277.006C290.654 277.766 290.808 278.432 291.114 279.006C291.434 279.579 291.848 280.019 292.354 280.326C292.874 280.619 293.421 280.766 293.994 280.766C294.581 280.766 295.128 280.619 295.634 280.326C296.141 280.032 296.548 279.606 296.854 279.046C297.174 278.472 297.334 277.806 297.334 277.046ZM304.909 267.766V282.566H302.629V267.766H304.909Z" fill="white"/>
<defs>
<clipPath id="clip0_1_6768">
<rect width="320" height="200" fill="white" transform="translate(34 30.5657)"/>
</clipPath>
<clipPath id="clip1_1_6768">
<rect width="22.2222" height="27.2727" fill="white" transform="translate(52.8889 62.9292)"/>
</clipPath>
<clipPath id="clip2_1_6768">
<rect width="25.2273" height="27.2727" fill="white" transform="translate(51.3865 154.929)"/>
</clipPath>
</defs>
</svg>
