<svg width="93" height="42" viewBox="0 0 93 42" fill="none" xmlns="http://www.w3.org/2000/svg">
<rect width="93" height="42" fill="#F5F5F5"/>
<g id="platform/desktop " clip-path="url(#clip0_0_1)">
<rect width="7689" height="15467" transform="translate(-6726 -8765)" fill="#1F1F1F"/>
<g id="Trading signals (desktop)">
<g id="Property 1=Variant9" clip-path="url(#clip1_0_1)">
<rect width="640" height="380" transform="translate(-63 -305)" fill="#2A2A2A"/>
<g id="Trading signals" clip-path="url(#clip2_0_1)">
<rect width="640" height="380" transform="translate(-63 -305)" fill="#2A2A2A"/>
<g id="background grid ">
<g id="horizontal">
<path id="horizontal_2" d="M-63 15.2578H577" stroke="#383838"/>
</g>
<g id="vertical">
<path id="vertical_2" d="M65 -300.77V79.2305" stroke="#383838"/>
<path id="Vector 121" d="M1.56083 39.4007C1.00867 39.4124 0.570549 39.8695 0.582256 40.4217C0.593963 40.9739 1.05107 41.412 1.60323 41.4003L1.56083 39.4007ZM91.4889 1.48284C91.4034 0.937219 90.8917 0.564235 90.3461 0.649758L81.4547 2.04344C80.9091 2.12896 80.5361 2.64061 80.6216 3.18623C80.7071 3.73185 81.2188 4.10484 81.7644 4.01931L89.6679 2.78049L90.9067 10.684C90.9922 11.2296 91.5039 11.6026 92.0495 11.5171C92.5951 11.4315 92.9681 10.9199 92.8826 10.3743L91.4889 1.48284ZM1.60323 41.4003C11.9676 41.1805 28.8409 38.9652 45.8801 33.0372C62.9101 27.1125 80.2192 17.4394 91.3091 2.22677L89.6929 1.04862C78.9384 15.8012 62.0569 25.2918 45.223 31.1483C28.3983 37.0016 11.7343 39.185 1.56083 39.4007L1.60323 41.4003Z" fill="#FFD84E"/>
</g>
</g>
</g>
</g>
<rect x="-5510.5" y="-324.5" width="6095" height="419" rx="4.5" stroke="#9747FF" stroke-dasharray="10 5"/>
</g>
</g>
<defs>
<clipPath id="clip0_0_1">
<rect width="7689" height="15467" fill="white" transform="translate(-6726 -8765)"/>
</clipPath>
<clipPath id="clip1_0_1">
<rect width="640" height="380" fill="white" transform="translate(-63 -305)"/>
</clipPath>
<clipPath id="clip2_0_1">
<rect width="640" height="380" fill="white" transform="translate(-63 -305)"/>
</clipPath>
</defs>
</svg>
