<svg width="391" height="321" viewBox="0 0 391 321" fill="none" xmlns="http://www.w3.org/2000/svg">
<rect width="390" height="320" transform="translate(0.5 0.5)" fill="#2A2A2A"/>
<g clip-path="url(#clip0_1_6791)">
<rect width="330" height="200" transform="translate(30.5 30.5)" fill="#2A2A2A"/>
<path d="M41.336 60H39.512L34.024 51.696V60H32.2V48.864H34.024L39.512 57.152V48.864H41.336V60ZM43.1233 55.552C43.1233 54.6667 43.3046 53.8827 43.6673 53.2C44.0406 52.5173 44.5419 51.9893 45.1713 51.616C45.8113 51.232 46.5153 51.04 47.2833 51.04C47.9766 51.04 48.5793 51.1787 49.0913 51.456C49.6139 51.7227 50.0299 52.0587 50.3393 52.464V51.184H52.1793V60H50.3393V58.688C50.0299 59.104 49.6086 59.4507 49.0753 59.728C48.5419 60.0053 47.9339 60.144 47.2513 60.144C46.4939 60.144 45.8006 59.952 45.1713 59.568C44.5419 59.1733 44.0406 58.6293 43.6673 57.936C43.3046 57.232 43.1233 56.4373 43.1233 55.552ZM50.3393 55.584C50.3393 54.976 50.2113 54.448 49.9553 54C49.7099 53.552 49.3846 53.2107 48.9793 52.976C48.5739 52.7413 48.1366 52.624 47.6673 52.624C47.1979 52.624 46.7606 52.7413 46.3553 52.976C45.9499 53.2 45.6193 53.536 45.3633 53.984C45.1179 54.4213 44.9953 54.944 44.9953 55.552C44.9953 56.16 45.1179 56.6933 45.3633 57.152C45.6193 57.6107 45.9499 57.9627 46.3553 58.208C46.7713 58.4427 47.2086 58.56 47.6673 58.56C48.1366 58.56 48.5739 58.4427 48.9793 58.208C49.3846 57.9733 49.7099 57.632 49.9553 57.184C50.2113 56.7253 50.3393 56.192 50.3393 55.584ZM57.775 60.144C57.0817 60.144 56.4577 60.0213 55.903 59.776C55.359 59.52 54.927 59.1787 54.607 58.752C54.287 58.3147 54.1163 57.8293 54.095 57.296H55.983C56.015 57.6693 56.191 57.984 56.511 58.24C56.8417 58.4853 57.2523 58.608 57.743 58.608C58.255 58.608 58.6497 58.512 58.927 58.32C59.215 58.1173 59.359 57.8613 59.359 57.552C59.359 57.2213 59.199 56.976 58.879 56.816C58.5697 56.656 58.0737 56.48 57.391 56.288C56.7297 56.1067 56.191 55.9307 55.775 55.76C55.359 55.5893 54.9963 55.328 54.687 54.976C54.3883 54.624 54.239 54.16 54.239 53.584C54.239 53.1147 54.3777 52.688 54.655 52.304C54.9323 51.9093 55.327 51.6 55.839 51.376C56.3617 51.152 56.959 51.04 57.631 51.04C58.6337 51.04 59.439 51.296 60.047 51.808C60.6657 52.3093 60.9963 52.9973 61.039 53.872H59.215C59.183 53.4773 59.023 53.1627 58.735 52.928C58.447 52.6933 58.0577 52.576 57.567 52.576C57.087 52.576 56.719 52.6667 56.463 52.848C56.207 53.0293 56.079 53.2693 56.079 53.568C56.079 53.8027 56.1643 54 56.335 54.16C56.5057 54.32 56.7137 54.448 56.959 54.544C57.2043 54.6293 57.567 54.7413 58.047 54.88C58.687 55.0507 59.2097 55.2267 59.615 55.408C60.031 55.5787 60.3883 55.8347 60.687 56.176C60.9857 56.5173 61.1403 56.9707 61.151 57.536C61.151 58.0373 61.0123 58.4853 60.735 58.88C60.4577 59.2747 60.063 59.584 59.551 59.808C59.0497 60.032 58.4577 60.144 57.775 60.144ZM62.5139 55.552C62.5139 54.6667 62.6952 53.8827 63.0579 53.2C63.4312 52.5173 63.9325 51.9893 64.5619 51.616C65.2019 51.232 65.9112 51.04 66.6899 51.04C67.2659 51.04 67.8312 51.168 68.3859 51.424C68.9512 51.6693 69.3992 52 69.7299 52.416V48.16H71.5699V60H69.7299V58.672C69.4312 59.0987 69.0152 59.4507 68.4819 59.728C67.9592 60.0053 67.3565 60.144 66.6739 60.144C65.9059 60.144 65.2019 59.952 64.5619 59.568C63.9325 59.1733 63.4312 58.6293 63.0579 57.936C62.6952 57.232 62.5139 56.4373 62.5139 55.552ZM69.7299 55.584C69.7299 54.976 69.6019 54.448 69.3459 54C69.1005 53.552 68.7752 53.2107 68.3699 52.976C67.9645 52.7413 67.5272 52.624 67.0579 52.624C66.5885 52.624 66.1512 52.7413 65.7459 52.976C65.3405 53.2 65.0099 53.536 64.7539 53.984C64.5085 54.4213 64.3859 54.944 64.3859 55.552C64.3859 56.16 64.5085 56.6933 64.7539 57.152C65.0099 57.6107 65.3405 57.9627 65.7459 58.208C66.1619 58.4427 66.5992 58.56 67.0579 58.56C67.5272 58.56 67.9645 58.4427 68.3699 58.208C68.7752 57.9733 69.1005 57.632 69.3459 57.184C69.6019 56.7253 69.7299 56.192 69.7299 55.584ZM73.3576 55.552C73.3576 54.6667 73.539 53.8827 73.9016 53.2C74.275 52.5173 74.7763 51.9893 75.4056 51.616C76.0456 51.232 76.7496 51.04 77.5176 51.04C78.211 51.04 78.8136 51.1787 79.3256 51.456C79.8483 51.7227 80.2643 52.0587 80.5736 52.464V51.184H82.4136V60H80.5736V58.688C80.2643 59.104 79.843 59.4507 79.3096 59.728C78.7763 60.0053 78.1683 60.144 77.4856 60.144C76.7283 60.144 76.035 59.952 75.4056 59.568C74.7763 59.1733 74.275 58.6293 73.9016 57.936C73.539 57.232 73.3576 56.4373 73.3576 55.552ZM80.5736 55.584C80.5736 54.976 80.4456 54.448 80.1896 54C79.9443 53.552 79.619 53.2107 79.2136 52.976C78.8083 52.7413 78.371 52.624 77.9016 52.624C77.4323 52.624 76.995 52.7413 76.5896 52.976C76.1843 53.2 75.8536 53.536 75.5976 53.984C75.3523 54.4213 75.2296 54.944 75.2296 55.552C75.2296 56.16 75.3523 56.6933 75.5976 57.152C75.8536 57.6107 76.1843 57.9627 76.5896 58.208C77.0056 58.4427 77.443 58.56 77.9016 58.56C78.371 58.56 78.8083 58.4427 79.2136 58.208C79.619 57.9733 79.9443 57.632 80.1896 57.184C80.4456 56.7253 80.5736 56.192 80.5736 55.584ZM84.2014 55.552C84.2014 54.6667 84.3827 53.8827 84.7454 53.2C85.1187 52.5173 85.62 51.9893 86.2494 51.616C86.8894 51.232 87.5987 51.04 88.3774 51.04C89.06 51.04 89.6627 51.1787 90.1854 51.456C90.7187 51.7333 91.1294 52.0693 91.4174 52.464V51.184H93.2574V64.192H91.4174V58.72C91.1294 59.1147 90.7134 59.4507 90.1694 59.728C89.6254 60.0053 89.0067 60.144 88.3134 60.144C87.556 60.144 86.8627 59.952 86.2334 59.568C85.6147 59.1733 85.1187 58.6293 84.7454 57.936C84.3827 57.232 84.2014 56.4373 84.2014 55.552ZM91.4174 55.584C91.4174 54.976 91.2894 54.448 91.0334 54C90.788 53.552 90.4627 53.2107 90.0574 52.976C89.652 52.7413 89.2147 52.624 88.7454 52.624C88.276 52.624 87.8387 52.7413 87.4334 52.976C87.028 53.2 86.6974 53.536 86.4414 53.984C86.196 54.4213 86.0734 54.944 86.0734 55.552C86.0734 56.16 86.196 56.6933 86.4414 57.152C86.6974 57.6107 87.028 57.9627 87.4334 58.208C87.8494 58.4427 88.2867 58.56 88.7454 58.56C89.2147 58.56 89.652 58.4427 90.0574 58.208C90.4627 57.9733 90.788 57.632 91.0334 57.184C91.2894 56.7253 91.4174 56.192 91.4174 55.584Z" fill="white"/>
<path d="M161.204 57.332C161.204 57.8653 161.071 58.3667 160.804 58.836C160.548 59.3053 160.164 59.7 159.652 60.02C159.151 60.34 158.553 60.532 157.86 60.596V61.892H156.82V60.596C155.817 60.5 155.007 60.1853 154.388 59.652C153.769 59.1187 153.46 58.4147 153.46 57.54H155.412C155.444 57.956 155.577 58.3027 155.812 58.58C156.047 58.8467 156.383 59.0173 156.82 59.092V55.572C156.105 55.3907 155.524 55.2093 155.076 55.028C154.628 54.836 154.244 54.5373 153.924 54.132C153.615 53.7267 153.46 53.172 153.46 52.468C153.46 51.5827 153.769 50.852 154.388 50.276C155.007 49.6893 155.817 49.348 156.82 49.252V47.956H157.86V49.252C158.799 49.3373 159.551 49.636 160.116 50.148C160.692 50.6493 161.017 51.3427 161.092 52.228H159.14C159.108 51.8973 158.98 51.604 158.756 51.348C158.532 51.0813 158.233 50.9 157.86 50.804V54.26C158.575 54.4307 159.156 54.612 159.604 54.804C160.052 54.9853 160.431 55.2787 160.74 55.684C161.049 56.0787 161.204 56.628 161.204 57.332ZM155.316 52.372C155.316 52.8093 155.444 53.1507 155.7 53.396C155.967 53.6413 156.34 53.8387 156.82 53.988V50.756C156.361 50.8093 155.993 50.9747 155.716 51.252C155.449 51.5293 155.316 51.9027 155.316 52.372ZM157.86 59.092C158.329 59.0173 158.697 58.8307 158.964 58.532C159.231 58.2227 159.364 57.8547 159.364 57.428C159.364 57.0013 159.231 56.6707 158.964 56.436C158.708 56.1907 158.34 55.9933 157.86 55.844V59.092ZM163.626 50.5V48.836H166.954V60.5H165.114V50.5H163.626ZM170.468 58.02C171.492 57.1347 172.297 56.4093 172.884 55.844C173.481 55.268 173.977 54.6707 174.372 54.052C174.767 53.4333 174.964 52.8147 174.964 52.196C174.964 51.556 174.809 51.0547 174.5 50.692C174.201 50.3293 173.727 50.148 173.076 50.148C172.447 50.148 171.956 50.3507 171.604 50.756C171.263 51.1507 171.081 51.684 171.06 52.356H169.3C169.332 51.14 169.695 50.212 170.388 49.572C171.092 48.9213 171.983 48.596 173.06 48.596C174.223 48.596 175.129 48.916 175.78 49.556C176.441 50.196 176.772 51.0493 176.772 52.116C176.772 52.884 176.575 53.6253 176.18 54.34C175.796 55.044 175.332 55.6787 174.788 56.244C174.255 56.7987 173.572 57.444 172.74 58.18L172.02 58.82H177.092V60.34H169.316V59.012L170.468 58.02ZM180.934 58.308L178.998 62.724H177.814L178.95 58.308H180.934ZM188.56 51.54C188.443 51.0493 188.229 50.6813 187.92 50.436C187.611 50.1907 187.179 50.068 186.624 50.068C185.781 50.068 185.152 50.3933 184.736 51.044C184.32 51.684 184.101 52.7507 184.08 54.244C184.357 53.7747 184.763 53.412 185.296 53.156C185.829 52.9 186.405 52.772 187.024 52.772C187.728 52.772 188.347 52.9267 188.88 53.236C189.424 53.5347 189.845 53.972 190.144 54.548C190.453 55.124 190.608 55.812 190.608 56.612C190.608 57.3587 190.459 58.0253 190.16 58.612C189.872 59.1987 189.44 59.6627 188.864 60.004C188.288 60.3347 187.595 60.5 186.784 60.5C185.685 60.5 184.821 60.26 184.192 59.78C183.573 59.2893 183.136 58.6013 182.88 57.716C182.635 56.8307 182.512 55.7267 182.512 54.404C182.512 50.5 183.888 48.548 186.64 48.548C187.707 48.548 188.544 48.836 189.152 49.412C189.771 49.988 190.133 50.6973 190.24 51.54H188.56ZM186.624 54.308C185.973 54.308 185.419 54.5053 184.96 54.9C184.512 55.284 184.288 55.844 184.288 56.58C184.288 57.316 184.496 57.9027 184.912 58.34C185.339 58.7667 185.931 58.98 186.688 58.98C187.36 58.98 187.888 58.772 188.272 58.356C188.667 57.94 188.864 57.3853 188.864 56.692C188.864 55.9667 188.672 55.3907 188.288 54.964C187.915 54.5267 187.36 54.308 186.624 54.308ZM200.074 50.404H194.714V53.588C194.938 53.2893 195.268 53.0387 195.706 52.836C196.154 52.6333 196.628 52.532 197.13 52.532C198.026 52.532 198.751 52.724 199.306 53.108C199.871 53.492 200.271 53.9773 200.506 54.564C200.751 55.1507 200.874 55.7693 200.874 56.42C200.874 57.2093 200.719 57.9133 200.41 58.532C200.111 59.14 199.658 59.62 199.05 59.972C198.452 60.324 197.716 60.5 196.842 60.5C195.679 60.5 194.746 60.212 194.042 59.636C193.338 59.06 192.916 58.2973 192.778 57.348H194.554C194.671 57.8493 194.932 58.2493 195.338 58.548C195.743 58.836 196.25 58.98 196.858 58.98C197.615 58.98 198.18 58.7507 198.554 58.292C198.938 57.8333 199.13 57.2253 199.13 56.468C199.13 55.7 198.938 55.1133 198.554 54.708C198.17 54.292 197.604 54.084 196.858 54.084C196.335 54.084 195.892 54.2173 195.53 54.484C195.178 54.74 194.922 55.092 194.762 55.54H193.034V48.804H200.074V50.404ZM204.741 54.404C203.631 53.8493 203.077 52.9747 203.077 51.78C203.077 51.204 203.221 50.676 203.509 50.196C203.797 49.716 204.229 49.3373 204.805 49.06C205.381 48.772 206.085 48.628 206.917 48.628C207.738 48.628 208.437 48.772 209.013 49.06C209.599 49.3373 210.036 49.716 210.325 50.196C210.613 50.676 210.757 51.204 210.757 51.78C210.757 52.3773 210.602 52.9053 210.293 53.364C209.994 53.812 209.594 54.1587 209.093 54.404C209.701 54.628 210.181 54.996 210.533 55.508C210.885 56.0093 211.061 56.6013 211.061 57.284C211.061 57.9773 210.885 58.5907 210.533 59.124C210.181 59.6573 209.69 60.068 209.061 60.356C208.431 60.644 207.717 60.788 206.917 60.788C206.117 60.788 205.402 60.644 204.773 60.356C204.154 60.068 203.669 59.6573 203.317 59.124C202.965 58.5907 202.789 57.9773 202.789 57.284C202.789 56.5907 202.965 55.9933 203.317 55.492C203.669 54.9907 204.143 54.628 204.741 54.404ZM209.013 52.004C209.013 51.4067 208.826 50.948 208.453 50.628C208.079 50.308 207.567 50.148 206.917 50.148C206.277 50.148 205.77 50.308 205.397 50.628C205.023 50.948 204.837 51.412 204.837 52.02C204.837 52.5533 205.029 52.9907 205.413 53.332C205.807 53.6627 206.309 53.828 206.917 53.828C207.525 53.828 208.026 53.6573 208.421 53.316C208.815 52.9747 209.013 52.5373 209.013 52.004ZM206.917 55.204C206.213 55.204 205.637 55.38 205.189 55.732C204.751 56.0733 204.533 56.5693 204.533 57.22C204.533 57.828 204.746 58.324 205.173 58.708C205.599 59.0813 206.181 59.268 206.917 59.268C207.642 59.268 208.213 59.076 208.629 58.692C209.055 58.308 209.269 57.8173 209.269 57.22C209.269 56.58 209.05 56.084 208.613 55.732C208.186 55.38 207.621 55.204 206.917 55.204Z" fill="white"/>
<path d="M303.56 59.02C303.981 59.02 304.336 58.972 304.624 58.876C304.917 58.7747 305.155 58.6387 305.336 58.468C305.523 58.2973 305.656 58.0973 305.736 57.868C305.821 57.6333 305.864 57.3827 305.864 57.116C305.864 56.572 305.677 56.1453 305.304 55.836C304.936 55.5213 304.352 55.364 303.552 55.364H301.24V59.02H303.56ZM301.24 50.444V54.044H303.112C303.912 54.044 304.509 53.8893 304.904 53.58C305.299 53.2707 305.496 52.8253 305.496 52.244C305.496 51.6093 305.309 51.1507 304.936 50.868C304.568 50.5853 303.989 50.444 303.2 50.444H301.24ZM303.2 48.98C303.936 48.98 304.565 49.052 305.088 49.196C305.611 49.3347 306.04 49.5347 306.376 49.796C306.712 50.0573 306.957 50.3773 307.112 50.756C307.272 51.1293 307.352 51.5507 307.352 52.02C307.352 52.292 307.309 52.556 307.224 52.812C307.144 53.0627 307.016 53.3 306.84 53.524C306.669 53.7427 306.453 53.94 306.192 54.116C305.931 54.292 305.621 54.4387 305.264 54.556C306.896 54.9027 307.712 55.7693 307.712 57.156C307.712 57.6467 307.619 58.0973 307.432 58.508C307.251 58.9133 306.984 59.2653 306.632 59.564C306.285 59.8573 305.856 60.0867 305.344 60.252C304.832 60.4173 304.248 60.5 303.592 60.5H299.368V48.98H303.2ZM316.225 52.34V60.5H315.185C314.956 60.5 314.809 60.3907 314.745 60.172L314.617 59.412C314.446 59.5933 314.265 59.7587 314.073 59.908C313.886 60.0573 313.686 60.1853 313.473 60.292C313.26 60.3987 313.03 60.4813 312.785 60.54C312.545 60.5987 312.286 60.628 312.009 60.628C311.561 60.628 311.166 60.5533 310.825 60.404C310.484 60.2547 310.196 60.044 309.961 59.772C309.732 59.5 309.558 59.1747 309.441 58.796C309.324 58.412 309.265 57.9907 309.265 57.532V52.34H310.985V57.532C310.985 58.0813 311.11 58.508 311.361 58.812C311.617 59.116 312.004 59.268 312.521 59.268C312.9 59.268 313.252 59.1827 313.577 59.012C313.908 58.836 314.217 58.596 314.505 58.292V52.34H316.225ZM325.554 52.34L321.058 62.82C320.999 62.9427 320.927 63.0387 320.842 63.108C320.762 63.1773 320.636 63.212 320.466 63.212H319.194L320.698 59.948L317.37 52.34H318.866C319.01 52.34 319.119 52.3747 319.194 52.444C319.274 52.508 319.332 52.5853 319.37 52.676L321.314 57.308C321.362 57.4413 321.404 57.5747 321.442 57.708C321.484 57.836 321.524 57.9693 321.562 58.108C321.604 57.9693 321.647 57.8333 321.69 57.7C321.732 57.5667 321.78 57.4333 321.834 57.3L323.698 52.676C323.735 52.58 323.796 52.5 323.882 52.436C323.972 52.372 324.071 52.34 324.178 52.34H325.554Z" fill="white"/>
<rect x="274" y="36.5" width="76" height="36" rx="6" stroke="#75FFBD"/>
<path d="M30.5449 174.128L32.3138 172.283C40.2863 163.971 54.3259 168.293 56.2434 179.65L57.0445 184.395C57.7205 188.398 61.1876 191.329 65.2478 191.329V191.329C68.3808 191.329 71.2482 189.569 72.6662 186.775L73.357 185.415C77.8346 176.593 90.8285 177.927 93.4203 187.474L101.338 216.641C102.58 221.213 108.892 221.655 110.759 217.301L125.752 182.326C127.675 177.841 132.928 175.836 137.35 177.899V177.899C141.144 179.669 145.66 178.466 148.07 175.043L156.158 163.558C158.824 159.771 164.483 159.91 166.96 163.823V163.823C170.125 168.823 177.782 167.334 178.842 161.512L179.356 158.687C180.594 151.886 189.732 150.492 192.942 156.614V156.614C195.563 161.612 202.631 161.846 205.577 157.033L210.902 148.333C213.168 144.632 217.195 142.376 221.534 142.376V142.376C224.865 142.376 228.057 143.709 230.399 146.078L233.161 148.872C239.335 155.119 249.912 152.806 252.915 144.552L266.775 106.456C268.035 102.994 273.022 103.273 273.888 106.854L279.504 130.088C282.202 141.249 297.777 142.036 301.587 131.205V131.205C302.086 129.785 304.036 129.637 304.744 130.964L314.75 149.713C318.913 157.513 330.09 157.529 334.274 149.739L336.756 145.119C337.726 143.312 339.085 141.743 340.734 140.525L350.5 133.307" stroke="#FFD84E" stroke-width="2" stroke-linecap="round" stroke-linejoin="round"/>
</g>
<path d="M65.6437 279.66H59.8237L58.8237 282.5H56.4437L61.4237 268.58H64.0637L69.0437 282.5H66.6437L65.6437 279.66ZM65.0037 277.8L62.7437 271.34L60.4637 277.8H65.0037ZM73.489 267.7V282.5H71.209V267.7H73.489ZM79.1424 273.34V279.44C79.1424 279.853 79.2358 280.153 79.4224 280.34C79.6224 280.513 79.9558 280.6 80.4224 280.6H81.8224V282.5H80.0224C78.9958 282.5 78.2091 282.26 77.6624 281.78C77.1158 281.3 76.8424 280.52 76.8424 279.44V273.34H75.5424V271.48H76.8424V268.74H79.1424V271.48H81.8224V273.34H79.1424ZM83.1638 276.94C83.1638 275.833 83.3905 274.853 83.8438 274C84.3105 273.147 84.9372 272.487 85.7238 272.02C86.5238 271.54 87.4038 271.3 88.3638 271.3C89.2305 271.3 89.9838 271.473 90.6238 271.82C91.2772 272.153 91.7972 272.573 92.1838 273.08V271.48H94.4838V282.5H92.1838V280.86C91.7972 281.38 91.2705 281.813 90.6038 282.16C89.9372 282.507 89.1772 282.68 88.3238 282.68C87.3772 282.68 86.5105 282.44 85.7238 281.96C84.9372 281.467 84.3105 280.787 83.8438 279.92C83.3905 279.04 83.1638 278.047 83.1638 276.94ZM92.1838 276.98C92.1838 276.22 92.0238 275.56 91.7038 275C91.3972 274.44 90.9905 274.013 90.4838 273.72C89.9772 273.427 89.4305 273.28 88.8438 273.28C88.2572 273.28 87.7105 273.427 87.2038 273.72C86.6972 274 86.2838 274.42 85.9638 274.98C85.6572 275.527 85.5038 276.18 85.5038 276.94C85.5038 277.7 85.6572 278.367 85.9638 278.94C86.2838 279.513 86.6972 279.953 87.2038 280.26C87.7238 280.553 88.2705 280.7 88.8438 280.7C89.4305 280.7 89.9772 280.553 90.4838 280.26C90.9905 279.967 91.3972 279.54 91.7038 278.98C92.0238 278.407 92.1838 277.74 92.1838 276.98ZM106.934 280.46L110.054 271.48H112.474L108.274 282.5H105.554L101.374 271.48H103.814L106.934 280.46ZM124.297 276.72C124.297 277.133 124.271 277.507 124.217 277.84H115.797C115.864 278.72 116.191 279.427 116.777 279.96C117.364 280.493 118.084 280.76 118.937 280.76C120.164 280.76 121.031 280.247 121.537 279.22H123.997C123.664 280.233 123.057 281.067 122.177 281.72C121.311 282.36 120.231 282.68 118.937 282.68C117.884 282.68 116.937 282.447 116.097 281.98C115.271 281.5 114.617 280.833 114.137 279.98C113.671 279.113 113.437 278.113 113.437 276.98C113.437 275.847 113.664 274.853 114.117 274C114.584 273.133 115.231 272.467 116.057 272C116.897 271.533 117.857 271.3 118.937 271.3C119.977 271.3 120.904 271.527 121.717 271.98C122.531 272.433 123.164 273.073 123.617 273.9C124.071 274.713 124.297 275.653 124.297 276.72ZM121.917 276C121.904 275.16 121.604 274.487 121.017 273.98C120.431 273.473 119.704 273.22 118.837 273.22C118.051 273.22 117.377 273.473 116.817 273.98C116.257 274.473 115.924 275.147 115.817 276H121.917ZM128.821 267.7V282.5H126.541V267.7H128.821ZM136.594 282.68C135.554 282.68 134.614 282.447 133.774 281.98C132.934 281.5 132.274 280.833 131.794 279.98C131.314 279.113 131.074 278.113 131.074 276.98C131.074 275.86 131.321 274.867 131.814 274C132.308 273.133 132.981 272.467 133.834 272C134.688 271.533 135.641 271.3 136.694 271.3C137.748 271.3 138.701 271.533 139.554 272C140.408 272.467 141.081 273.133 141.574 274C142.068 274.867 142.314 275.86 142.314 276.98C142.314 278.1 142.061 279.093 141.554 279.96C141.048 280.827 140.354 281.5 139.474 281.98C138.608 282.447 137.648 282.68 136.594 282.68ZM136.594 280.7C137.181 280.7 137.728 280.56 138.234 280.28C138.754 280 139.174 279.58 139.494 279.02C139.814 278.46 139.974 277.78 139.974 276.98C139.974 276.18 139.821 275.507 139.514 274.96C139.208 274.4 138.801 273.98 138.294 273.7C137.788 273.42 137.241 273.28 136.654 273.28C136.068 273.28 135.521 273.42 135.014 273.7C134.521 273.98 134.128 274.4 133.834 274.96C133.541 275.507 133.394 276.18 133.394 276.98C133.394 278.167 133.694 279.087 134.294 279.74C134.908 280.38 135.674 280.7 136.594 280.7ZM143.808 276.98C143.808 275.847 144.035 274.853 144.488 274C144.955 273.133 145.595 272.467 146.408 272C147.222 271.533 148.155 271.3 149.208 271.3C150.542 271.3 151.642 271.62 152.508 272.26C153.388 272.887 153.982 273.787 154.288 274.96H151.828C151.628 274.413 151.308 273.987 150.868 273.68C150.428 273.373 149.875 273.22 149.208 273.22C148.275 273.22 147.528 273.553 146.968 274.22C146.422 274.873 146.148 275.793 146.148 276.98C146.148 278.167 146.422 279.093 146.968 279.76C147.528 280.427 148.275 280.76 149.208 280.76C150.528 280.76 151.402 280.18 151.828 279.02H154.288C153.968 280.14 153.368 281.033 152.488 281.7C151.608 282.353 150.515 282.68 149.208 282.68C148.155 282.68 147.222 282.447 146.408 281.98C145.595 281.5 144.955 280.833 144.488 279.98C144.035 279.113 143.808 278.113 143.808 276.98ZM157.721 270.02C157.307 270.02 156.961 269.88 156.681 269.6C156.401 269.32 156.261 268.973 156.261 268.56C156.261 268.147 156.401 267.8 156.681 267.52C156.961 267.24 157.307 267.1 157.721 267.1C158.121 267.1 158.461 267.24 158.741 267.52C159.021 267.8 159.161 268.147 159.161 268.56C159.161 268.973 159.021 269.32 158.741 269.6C158.461 269.88 158.121 270.02 157.721 270.02ZM158.841 271.48V282.5H156.561V271.48H158.841ZM161.074 276.94C161.074 275.833 161.301 274.853 161.754 274C162.221 273.147 162.847 272.487 163.634 272.02C164.434 271.54 165.321 271.3 166.294 271.3C167.014 271.3 167.721 271.46 168.414 271.78C169.121 272.087 169.681 272.5 170.094 273.02V267.7H172.394V282.5H170.094V280.84C169.721 281.373 169.201 281.813 168.534 282.16C167.881 282.507 167.127 282.68 166.274 282.68C165.314 282.68 164.434 282.44 163.634 281.96C162.847 281.467 162.221 280.787 161.754 279.92C161.301 279.04 161.074 278.047 161.074 276.94ZM170.094 276.98C170.094 276.22 169.934 275.56 169.614 275C169.307 274.44 168.901 274.013 168.394 273.72C167.887 273.427 167.341 273.28 166.754 273.28C166.167 273.28 165.621 273.427 165.114 273.72C164.607 274 164.194 274.42 163.874 274.98C163.567 275.527 163.414 276.18 163.414 276.94C163.414 277.7 163.567 278.367 163.874 278.94C164.194 279.513 164.607 279.953 165.114 280.26C165.634 280.553 166.181 280.7 166.754 280.7C167.341 280.7 167.887 280.553 168.394 280.26C168.901 279.967 169.307 279.54 169.614 278.98C169.934 278.407 170.094 277.74 170.094 276.98ZM174.629 276.94C174.629 275.833 174.855 274.853 175.309 274C175.775 273.147 176.402 272.487 177.189 272.02C177.989 271.54 178.869 271.3 179.829 271.3C180.695 271.3 181.449 271.473 182.089 271.82C182.742 272.153 183.262 272.573 183.649 273.08V271.48H185.949V282.5H183.649V280.86C183.262 281.38 182.735 281.813 182.069 282.16C181.402 282.507 180.642 282.68 179.789 282.68C178.842 282.68 177.975 282.44 177.189 281.96C176.402 281.467 175.775 280.787 175.309 279.92C174.855 279.04 174.629 278.047 174.629 276.94ZM183.649 276.98C183.649 276.22 183.489 275.56 183.169 275C182.862 274.44 182.455 274.013 181.949 273.72C181.442 273.427 180.895 273.28 180.309 273.28C179.722 273.28 179.175 273.427 178.669 273.72C178.162 274 177.749 274.42 177.429 274.98C177.122 275.527 176.969 276.18 176.969 276.94C176.969 277.7 177.122 278.367 177.429 278.94C177.749 279.513 178.162 279.953 178.669 280.26C179.189 280.553 179.735 280.7 180.309 280.7C180.895 280.7 181.442 280.553 181.949 280.26C182.455 279.967 182.862 279.54 183.169 278.98C183.489 278.407 183.649 277.74 183.649 276.98ZM188.183 276.94C188.183 275.833 188.41 274.853 188.863 274C189.33 273.147 189.957 272.487 190.743 272.02C191.543 271.54 192.43 271.3 193.403 271.3C194.123 271.3 194.83 271.46 195.523 271.78C196.23 272.087 196.79 272.5 197.203 273.02V267.7H199.503V282.5H197.203V280.84C196.83 281.373 196.31 281.813 195.643 282.16C194.99 282.507 194.237 282.68 193.383 282.68C192.423 282.68 191.543 282.44 190.743 281.96C189.957 281.467 189.33 280.787 188.863 279.92C188.41 279.04 188.183 278.047 188.183 276.94ZM197.203 276.98C197.203 276.22 197.043 275.56 196.723 275C196.417 274.44 196.01 274.013 195.503 273.72C194.997 273.427 194.45 273.28 193.863 273.28C193.277 273.28 192.73 273.427 192.223 273.72C191.717 274 191.303 274.42 190.983 274.98C190.677 275.527 190.523 276.18 190.523 276.94C190.523 277.7 190.677 278.367 190.983 278.94C191.303 279.513 191.717 279.953 192.223 280.26C192.743 280.553 193.29 280.7 193.863 280.7C194.45 280.7 194.997 280.553 195.503 280.26C196.01 279.967 196.417 279.54 196.723 278.98C197.043 278.407 197.203 277.74 197.203 276.98ZM206.933 276.94C206.933 275.833 207.16 274.853 207.613 274C208.08 273.147 208.707 272.487 209.493 272.02C210.293 271.54 211.18 271.3 212.153 271.3C212.873 271.3 213.58 271.46 214.273 271.78C214.98 272.087 215.54 272.5 215.953 273.02V267.7H218.253V282.5H215.953V280.84C215.58 281.373 215.06 281.813 214.393 282.16C213.74 282.507 212.987 282.68 212.133 282.68C211.173 282.68 210.293 282.44 209.493 281.96C208.707 281.467 208.08 280.787 207.613 279.92C207.16 279.04 206.933 278.047 206.933 276.94ZM215.953 276.98C215.953 276.22 215.793 275.56 215.473 275C215.167 274.44 214.76 274.013 214.253 273.72C213.747 273.427 213.2 273.28 212.613 273.28C212.027 273.28 211.48 273.427 210.973 273.72C210.467 274 210.053 274.42 209.733 274.98C209.427 275.527 209.273 276.18 209.273 276.94C209.273 277.7 209.427 278.367 209.733 278.94C210.053 279.513 210.467 279.953 210.973 280.26C211.493 280.553 212.04 280.7 212.613 280.7C213.2 280.7 213.747 280.553 214.253 280.26C214.76 279.967 215.167 279.54 215.473 278.98C215.793 278.407 215.953 277.74 215.953 276.98ZM231.348 276.72C231.348 277.133 231.321 277.507 231.268 277.84H222.848C222.915 278.72 223.241 279.427 223.828 279.96C224.415 280.493 225.135 280.76 225.988 280.76C227.215 280.76 228.081 280.247 228.588 279.22H231.048C230.715 280.233 230.108 281.067 229.228 281.72C228.361 282.36 227.281 282.68 225.988 282.68C224.935 282.68 223.988 282.447 223.148 281.98C222.321 281.5 221.668 280.833 221.188 279.98C220.721 279.113 220.488 278.113 220.488 276.98C220.488 275.847 220.715 274.853 221.168 274C221.635 273.133 222.281 272.467 223.108 272C223.948 271.533 224.908 271.3 225.988 271.3C227.028 271.3 227.955 271.527 228.768 271.98C229.581 272.433 230.215 273.073 230.668 273.9C231.121 274.713 231.348 275.653 231.348 276.72ZM228.968 276C228.955 275.16 228.655 274.487 228.068 273.98C227.481 273.473 226.755 273.22 225.888 273.22C225.101 273.22 224.428 273.473 223.868 273.98C223.308 274.473 222.975 275.147 222.868 276H228.968ZM248.887 276.72C248.887 277.133 248.86 277.507 248.807 277.84H240.387C240.454 278.72 240.78 279.427 241.367 279.96C241.954 280.493 242.674 280.76 243.527 280.76C244.754 280.76 245.62 280.247 246.127 279.22H248.587C248.254 280.233 247.647 281.067 246.767 281.72C245.9 282.36 244.82 282.68 243.527 282.68C242.474 282.68 241.527 282.447 240.687 281.98C239.86 281.5 239.207 280.833 238.727 279.98C238.26 279.113 238.027 278.113 238.027 276.98C238.027 275.847 238.254 274.853 238.707 274C239.174 273.133 239.82 272.467 240.647 272C241.487 271.533 242.447 271.3 243.527 271.3C244.567 271.3 245.494 271.527 246.307 271.98C247.12 272.433 247.754 273.073 248.207 273.9C248.66 274.713 248.887 275.653 248.887 276.72ZM246.507 276C246.494 275.16 246.194 274.487 245.607 273.98C245.02 273.473 244.294 273.22 243.427 273.22C242.64 273.22 241.967 273.473 241.407 273.98C240.847 274.473 240.514 275.147 240.407 276H246.507ZM252.291 270.02C251.878 270.02 251.531 269.88 251.251 269.6C250.971 269.32 250.831 268.973 250.831 268.56C250.831 268.147 250.971 267.8 251.251 267.52C251.531 267.24 251.878 267.1 252.291 267.1C252.691 267.1 253.031 267.24 253.311 267.52C253.591 267.8 253.731 268.147 253.731 268.56C253.731 268.973 253.591 269.32 253.311 269.6C253.031 269.88 252.691 270.02 252.291 270.02ZM253.411 284.66C253.411 285.74 253.138 286.52 252.591 287C252.058 287.493 251.278 287.74 250.251 287.74H249.071V285.82H249.851C250.318 285.82 250.644 285.727 250.831 285.54C251.031 285.367 251.131 285.073 251.131 284.66V271.48H253.411V284.66ZM266.504 276.72C266.504 277.133 266.478 277.507 266.424 277.84H258.004C258.071 278.72 258.398 279.427 258.984 279.96C259.571 280.493 260.291 280.76 261.144 280.76C262.371 280.76 263.238 280.247 263.744 279.22H266.204C265.871 280.233 265.264 281.067 264.384 281.72C263.518 282.36 262.438 282.68 261.144 282.68C260.091 282.68 259.144 282.447 258.304 281.98C257.478 281.5 256.824 280.833 256.344 279.98C255.878 279.113 255.644 278.113 255.644 276.98C255.644 275.847 255.871 274.853 256.324 274C256.791 273.133 257.438 272.467 258.264 272C259.104 271.533 260.064 271.3 261.144 271.3C262.184 271.3 263.111 271.527 263.924 271.98C264.738 272.433 265.371 273.073 265.824 273.9C266.278 274.713 266.504 275.653 266.504 276.72ZM264.124 276C264.111 275.16 263.811 274.487 263.224 273.98C262.638 273.473 261.911 273.22 261.044 273.22C260.258 273.22 259.584 273.473 259.024 273.98C258.464 274.473 258.131 275.147 258.024 276H264.124ZM267.988 276.98C267.988 275.847 268.215 274.853 268.668 274C269.135 273.133 269.775 272.467 270.588 272C271.401 271.533 272.335 271.3 273.388 271.3C274.721 271.3 275.821 271.62 276.688 272.26C277.568 272.887 278.161 273.787 278.468 274.96H276.008C275.808 274.413 275.488 273.987 275.048 273.68C274.608 273.373 274.055 273.22 273.388 273.22C272.455 273.22 271.708 273.553 271.148 274.22C270.601 274.873 270.328 275.793 270.328 276.98C270.328 278.167 270.601 279.093 271.148 279.76C271.708 280.427 272.455 280.76 273.388 280.76C274.708 280.76 275.581 280.18 276.008 279.02H278.468C278.148 280.14 277.548 281.033 276.668 281.7C275.788 282.353 274.695 282.68 273.388 282.68C272.335 282.68 271.401 282.447 270.588 281.98C269.775 281.5 269.135 280.833 268.668 279.98C268.215 279.113 267.988 278.113 267.988 276.98ZM290.72 271.48V282.5H288.44V281.2C288.08 281.653 287.607 282.013 287.02 282.28C286.447 282.533 285.834 282.66 285.18 282.66C284.314 282.66 283.534 282.48 282.84 282.12C282.16 281.76 281.62 281.227 281.22 280.52C280.834 279.813 280.64 278.96 280.64 277.96V271.48H282.9V277.62C282.9 278.607 283.147 279.367 283.64 279.9C284.134 280.42 284.807 280.68 285.66 280.68C286.514 280.68 287.187 280.42 287.68 279.9C288.187 279.367 288.44 278.607 288.44 277.62V271.48H290.72ZM292.969 276.98C292.969 275.847 293.195 274.853 293.649 274C294.115 273.133 294.755 272.467 295.569 272C296.382 271.533 297.315 271.3 298.369 271.3C299.702 271.3 300.802 271.62 301.669 272.26C302.549 272.887 303.142 273.787 303.449 274.96H300.989C300.789 274.413 300.469 273.987 300.029 273.68C299.589 273.373 299.035 273.22 298.369 273.22C297.435 273.22 296.689 273.553 296.129 274.22C295.582 274.873 295.309 275.793 295.309 276.98C295.309 278.167 295.582 279.093 296.129 279.76C296.689 280.427 297.435 280.76 298.369 280.76C299.689 280.76 300.562 280.18 300.989 279.02H303.449C303.129 280.14 302.529 281.033 301.649 281.7C300.769 282.353 299.675 282.68 298.369 282.68C297.315 282.68 296.382 282.447 295.569 281.98C294.755 281.5 294.115 280.833 293.649 279.98C293.195 279.113 292.969 278.113 292.969 276.98ZM306.881 270.02C306.467 270.02 306.121 269.88 305.841 269.6C305.561 269.32 305.421 268.973 305.421 268.56C305.421 268.147 305.561 267.8 305.841 267.52C306.121 267.24 306.467 267.1 306.881 267.1C307.281 267.1 307.621 267.24 307.901 267.52C308.181 267.8 308.321 268.147 308.321 268.56C308.321 268.973 308.181 269.32 307.901 269.6C307.621 269.88 307.281 270.02 306.881 270.02ZM308.001 271.48V282.5H305.721V271.48H308.001ZM315.774 282.68C314.734 282.68 313.794 282.447 312.954 281.98C312.114 281.5 311.454 280.833 310.974 279.98C310.494 279.113 310.254 278.113 310.254 276.98C310.254 275.86 310.501 274.867 310.994 274C311.487 273.133 312.161 272.467 313.014 272C313.867 271.533 314.821 271.3 315.874 271.3C316.927 271.3 317.881 271.533 318.734 272C319.587 272.467 320.261 273.133 320.754 274C321.247 274.867 321.494 275.86 321.494 276.98C321.494 278.1 321.241 279.093 320.734 279.96C320.227 280.827 319.534 281.5 318.654 281.98C317.787 282.447 316.827 282.68 315.774 282.68ZM315.774 280.7C316.361 280.7 316.907 280.56 317.414 280.28C317.934 280 318.354 279.58 318.674 279.02C318.994 278.46 319.154 277.78 319.154 276.98C319.154 276.18 319.001 275.507 318.694 274.96C318.387 274.4 317.981 273.98 317.474 273.7C316.967 273.42 316.421 273.28 315.834 273.28C315.247 273.28 314.701 273.42 314.194 273.7C313.701 273.98 313.307 274.4 313.014 274.96C312.721 275.507 312.574 276.18 312.574 276.98C312.574 278.167 312.874 279.087 313.474 279.74C314.087 280.38 314.854 280.7 315.774 280.7ZM317.934 268.34L313.514 270.52V268.84L317.934 266.4V268.34ZM329.308 271.3C330.175 271.3 330.948 271.48 331.628 271.84C332.321 272.2 332.861 272.733 333.248 273.44C333.635 274.147 333.828 275 333.828 276V282.5H331.568V276.34C331.568 275.353 331.321 274.6 330.828 274.08C330.335 273.547 329.661 273.28 328.808 273.28C327.955 273.28 327.275 273.547 326.768 274.08C326.275 274.6 326.028 275.353 326.028 276.34V282.5H323.748V271.48H326.028V272.74C326.401 272.287 326.875 271.933 327.448 271.68C328.035 271.427 328.655 271.3 329.308 271.3Z" fill="white"/>
<defs>
<clipPath id="clip0_1_6791">
<rect width="330" height="200" fill="white" transform="translate(30.5 30.5)"/>
</clipPath>
</defs>
</svg>
